<svg xmlns="http://www.w3.org/2000/svg" xmlns:xlink="http://www.w3.org/1999/xlink" viewBox="0 0 4800 2700"><defs><style>.cls-1,.cls-93{fill:none;}.cls-2{isolation:isolate;}.cls-3{clip-path:url(#clip-path);}.cls-4{fill:url(#linear-gradient);}.cls-5{fill:#212427;}.cls-6{fill:url(#linear-gradient-2);}.cls-7{opacity:0.39;}.cls-7,.cls-81,.cls-82,.cls-83,.cls-84,.cls-85,.cls-86,.cls-87,.cls-88{mix-blend-mode:multiply;}.cls-8{fill:#083749;}.cls-9,.cls-96,.cls-97{fill:#026a9e;}.cls-10{fill:#77888b;}.cls-11{fill:#f3f7f4;}.cls-12{fill:#262626;}.cls-13{fill:#1a1a1c;}.cls-14{fill:#444447;}.cls-15{fill:#555d69;}.cls-16{fill:url(#Áåçûìÿííûé_ãðàäèåíò_566);}.cls-17{fill:#947e7e;}.cls-18,.cls-92{fill:#0f4b6a;}.cls-19{fill:#031f28;}.cls-20{fill:#211f1f;}.cls-21{fill:#1a181a;}.cls-22{fill:url(#Áåçûìÿííûé_ãðàäèåíò_1106);}.cls-23{fill:#121011;}.cls-24{fill:#453e41;}.cls-25{fill:url(#Áåçûìÿííûé_ãðàäèåíò_1106-2);}.cls-26{fill:url(#Áåçûìÿííûé_ãðàäèåíò_1106-3);}.cls-27{fill:#1e2329;}.cls-28{fill:#cfd3d6;}.cls-29{fill:#2d2c37;}.cls-30{fill:url(#linear-gradient-3);}.cls-31{fill:url(#linear-gradient-4);}.cls-32{fill:#504f58;}.cls-33{fill:#bababe;}.cls-34{fill:url(#linear-gradient-5);}.cls-35{fill:#393843;}.cls-36{fill:url(#linear-gradient-6);}.cls-37{fill:url(#linear-gradient-7);}.cls-38{fill:url(#linear-gradient-8);}.cls-39{fill:url(#linear-gradient-9);}.cls-40{fill:#dfdfe3;}.cls-41{fill:#4b4a4b;}.cls-42{fill:url(#linear-gradient-10);}.cls-43{fill:url(#linear-gradient-11);}.cls-44{fill:url(#linear-gradient-12);}.cls-45{fill:url(#linear-gradient-13);}.cls-46{fill:url(#linear-gradient-14);}.cls-47{fill:url(#linear-gradient-15);}.cls-48{fill:url(#linear-gradient-16);}.cls-49,.cls-94,.cls-98{fill:#eaeaea;}.cls-50{fill:#a0a6aa;}.cls-51{fill:#2d2d2d;opacity:0.7;}.cls-52,.cls-54,.cls-72{fill:#fff;}.cls-52{opacity:0.2;}.cls-53{fill:#bec3c7;}.cls-55{fill:#afb4b8;}.cls-56{fill:#232323;}.cls-57{fill:#141414;}.cls-58{fill:#333;}.cls-59{fill:#d62821;}.cls-60{fill:#92201a;}.cls-61,.cls-75{fill:#d3d3d3;}.cls-62{fill:#4f4a4a;}.cls-63{fill:#7f0000;}.cls-64{fill:#cecece;}.cls-65{fill:#801d15;}.cls-66{fill:#900;}.cls-67{fill:#ef1111;}.cls-68{fill:#a00;}.cls-69,.cls-71{fill:#848484;}.cls-69,.cls-70{opacity:0.4;}.cls-70{fill:#f7df2d;}.cls-71{opacity:0.3;}.cls-72{opacity:0.5;}.cls-73{fill:#560000;}.cls-74{fill:#a00404;}.cls-75{opacity:0.6;}.cls-76{fill:#d6d6d6;}.cls-77{fill:#f3d645;}.cls-78{fill:#929292;}.cls-79{fill:#777;}.cls-80{fill:#b3b3b3;}.cls-81{fill:url(#Áåçûìÿííûé_ãðàäèåíò_933);}.cls-82{fill:url(#Áåçûìÿííûé_ãðàäèåíò_933-2);}.cls-83{fill:url(#Áåçûìÿííûé_ãðàäèåíò_933-3);}.cls-84{fill:url(#Áåçûìÿííûé_ãðàäèåíò_933-4);}.cls-85{fill:url(#Áåçûìÿííûé_ãðàäèåíò_933-5);}.cls-86{fill:url(#Áåçûìÿííûé_ãðàäèåíò_933-6);}.cls-87{fill:url(#Áåçûìÿííûé_ãðàäèåíò_933-7);}.cls-88{fill:url(#Áåçûìÿííûé_ãðàäèåíò_933-8);}.cls-89{fill:#303033;}.cls-90{fill:#eba298;}.cls-91{fill:#001f51;}.cls-92{font-size:50.41px;}.cls-92,.cls-94,.cls-98{font-family:OpenSans-SemiBold, Open Sans;font-weight:600;}.cls-93{stroke:#eaeaea;stroke-miterlimit:10;stroke-width:4.52px;}.cls-94{font-size:101.2px;}.cls-95{font-size:76.34px;}.cls-96{font-size:74.82px;}.cls-96,.cls-97{font-family:OpenSans-Bold, Open Sans;font-weight:700;}.cls-97{font-size:229.89px;}.cls-98{font-size:91.71px;}</style><clipPath id="clip-path"><rect class="cls-1" width="4800" height="2700"/></clipPath><linearGradient id="linear-gradient" y1="1350" x2="4800" y2="1350" gradientUnits="userSpaceOnUse"><stop offset="0" stop-color="#031f28"/><stop offset="1" stop-color="#0f4b6a"/></linearGradient><linearGradient id="linear-gradient-2" x1="-74.59" y1="-698.93" x2="-1000.46" y2="3966.37" gradientUnits="userSpaceOnUse"><stop offset="0.14" stop-color="#4e5155"/><stop offset="0.37" stop-color="#5d6063"/><stop offset="0.64" stop-color="#67696c"/><stop offset="1" stop-color="#6a6c6f"/></linearGradient><linearGradient id="Áåçûìÿííûé_ãðàäèåíò_566" x1="934.19" y1="1188.78" x2="2912.6" y2="-789.62" gradientTransform="matrix(-1, 0, 0, 1, 3830.26, 0)" gradientUnits="userSpaceOnUse"><stop offset="0" stop-color="#13181e"/><stop offset="1" stop-color="#37373a"/></linearGradient><linearGradient id="Áåçûìÿííûé_ãðàäèåíò_1106" x1="2441.67" y1="131.53" x2="2375.75" y2="-71.37" gradientTransform="matrix(-1, 0, 0, 1, 3830.26, 0)" gradientUnits="userSpaceOnUse"><stop offset="0.1" stop-color="#2b292b"/><stop offset="1" stop-color="#383638"/></linearGradient><linearGradient id="Áåçûìÿííûé_ãðàäèåíò_1106-2" x1="2121.47" y1="316.3" x2="2055.55" y2="113.4" xlink:href="#Áåçûìÿííûé_ãðàäèåíò_1106"/><linearGradient id="Áåçûìÿííûé_ãðàäèåíò_1106-3" x1="2121.47" y1="113.08" x2="2055.55" y2="-89.82" xlink:href="#Áåçûìÿííûé_ãðàäèåíò_1106"/><linearGradient id="linear-gradient-3" x1="-3433.27" y1="1596.05" x2="-3319.89" y2="1399.69" gradientTransform="translate(4736.26)" gradientUnits="userSpaceOnUse"><stop offset="0" stop-color="#141414"/><stop offset="0.44" stop-color="#1e1e1e"/><stop offset="0.78" stop-color="#202020"/><stop offset="0.98" stop-color="#292929"/><stop offset="1" stop-color="#2a2a2a"/></linearGradient><linearGradient id="linear-gradient-4" x1="-3433.89" y1="1593.51" x2="-3324.83" y2="1404.61" gradientTransform="translate(4736.26)" gradientUnits="userSpaceOnUse"><stop offset="0" stop-color="#161616"/><stop offset="0.3" stop-color="#1a1a1a"/><stop offset="0.79" stop-color="#1e1e1e"/><stop offset="0.8" stop-color="#1e1e1e"/></linearGradient><linearGradient id="linear-gradient-5" x1="5342.68" y1="1597.88" x2="5459.71" y2="1395.17" gradientTransform="matrix(-1, 0, 0, 1, 6760.85, 0)" gradientUnits="userSpaceOnUse"><stop offset="0.27" stop-color="#eceef7"/><stop offset="0.77" stop-color="#9c9aa8"/></linearGradient><linearGradient id="linear-gradient-6" x1="5402.86" y1="1533.56" x2="5345.13" y2="1433.56" gradientTransform="matrix(-1, 0, 0, 1, 6760.85, 0)" gradientUnits="userSpaceOnUse"><stop offset="0.26" stop-color="#393843"/><stop offset="0.78" stop-color="#23222e"/></linearGradient><linearGradient id="linear-gradient-7" x1="5393.98" y1="1459.49" x2="5347.59" y2="1472.79" gradientTransform="matrix(-1, 0, 0, 1, 6760.85, 0)" gradientUnits="userSpaceOnUse"><stop offset="0" stop-color="#adaeb8"/><stop offset="0.08" stop-color="#babcc5"/><stop offset="0.2" stop-color="#c9cbd4"/><stop offset="0.34" stop-color="#d2d4dc"/><stop offset="0.55" stop-color="#d5d7df"/><stop offset="0.66" stop-color="#c0c1ca"/><stop offset="1" stop-color="#868490"/></linearGradient><linearGradient id="linear-gradient-8" x1="5372.4" y1="1547.38" x2="5334.88" y2="1532.22" xlink:href="#linear-gradient-7"/><linearGradient id="linear-gradient-9" x1="5435.97" y1="1470.84" x2="5414.31" y2="1433.32" xlink:href="#linear-gradient-7"/><linearGradient id="linear-gradient-10" x1="-4363.08" y1="1054.96" x2="-4249.71" y2="858.59" xlink:href="#linear-gradient-3"/><linearGradient id="linear-gradient-11" x1="-4363.7" y1="1052.41" x2="-4254.64" y2="863.51" xlink:href="#linear-gradient-4"/><linearGradient id="linear-gradient-12" x1="6272.49" y1="1056.78" x2="6389.52" y2="854.08" xlink:href="#linear-gradient-5"/><linearGradient id="linear-gradient-13" x1="6332.68" y1="992.46" x2="6274.95" y2="892.46" xlink:href="#linear-gradient-6"/><linearGradient id="linear-gradient-14" x1="6323.8" y1="918.39" x2="6277.41" y2="931.69" xlink:href="#linear-gradient-7"/><linearGradient id="linear-gradient-15" x1="6302.22" y1="1006.28" x2="6264.7" y2="991.12" xlink:href="#linear-gradient-7"/><linearGradient id="linear-gradient-16" x1="6365.79" y1="929.74" x2="6344.12" y2="892.22" xlink:href="#linear-gradient-7"/><linearGradient id="Áåçûìÿííûé_ãðàäèåíò_933" x1="1078.28" y1="610.94" x2="730.65" y2="1213.06" gradientTransform="matrix(-1, 0, 0, 1, 3830.26, 0)" gradientUnits="userSpaceOnUse"><stop offset="0" stop-color="#d7f2f5"/><stop offset="0.47" stop-color="#d1eaee"/><stop offset="0.52" stop-color="#d3e7eb"/><stop offset="1" stop-color="#dfe9eb"/></linearGradient><linearGradient id="Áåçûìÿííûé_ãðàäèåíò_933-2" x1="1439.77" y1="819.66" x2="1092.13" y2="1421.78" xlink:href="#Áåçûìÿííûé_ãðàäèåíò_933"/><linearGradient id="Áåçûìÿííûé_ãðàäèåíò_933-3" x1="1801.22" y1="1028.35" x2="1453.59" y2="1630.47" xlink:href="#Áåçûìÿííûé_ãðàäèåíò_933"/><linearGradient id="Áåçûìÿííûé_ãðàäèåíò_933-4" x1="2162.71" y1="1237.06" x2="1815.07" y2="1839.19" xlink:href="#Áåçûìÿííûé_ãðàäèåíò_933"/><linearGradient id="Áåçûìÿííûé_ãðàäèåíò_933-5" x1="2524.17" y1="1445.75" x2="2176.53" y2="2047.88" xlink:href="#Áåçûìÿííûé_ãðàäèåíò_933"/><linearGradient id="Áåçûìÿííûé_ãðàäèåíò_933-6" x1="2885.65" y1="1654.47" x2="2538.02" y2="2256.59" xlink:href="#Áåçûìÿííûé_ãðàäèåíò_933"/><linearGradient id="Áåçûìÿííûé_ãðàäèåíò_933-7" x1="3247.15" y1="1863.25" x2="2899.51" y2="2465.37" xlink:href="#Áåçûìÿííûé_ãðàäèåíò_933"/><linearGradient id="Áåçûìÿííûé_ãðàäèåíò_933-8" x1="3873.58" y1="2224.93" x2="3525.94" y2="2827.05" xlink:href="#Áåçûìÿííûé_ãðàäèåíò_933"/></defs><g class="cls-2"><g id="Auto_Loan" data-name="Auto Loan"><g class="cls-3"><rect class="cls-4" width="4800" height="2700"/><polygon class="cls-5" points="-1372.69 3836.27 -1372.69 3910.94 3017.5 1380.66 3017.5 1306.09 -1372.69 3836.27"/><polygon class="cls-6" points="243.39 -295.25 -4146.74 2234.99 -1372.74 3836.32 3017.39 1306.09 243.39 -295.25"/><polygon class="cls-7" points="985.35 2160.98 1030 2160.15 1109.71 2026.6 1073.63 2012.15 896.32 2115.02 985.35 2160.98"/><path class="cls-8" d="M1167.66,2078.46v-8.78l-5.45.75a27.73,27.73,0,0,0-6.18-3.88l-60.68-25.31c-12.63-5.93-31-5.35-42.62,1.33l-94.38,54.49a28.23,28.23,0,0,0-2.39,1.56l-7,1v8.58l0,0c-.07,4.14,2.24,8.3,7.06,11.72l46.29,33.61c11.87,8.42,33.81,9,47.19,1.31l108.77-62.8C1164.8,2088.26,1167.89,2083.32,1167.66,2078.46Z"/><path class="cls-9" d="M1158.3,2083.26,1049.5,2146c-13.34,7.74-35.32,7.13-47.19-1.28l-.43-.3L956,2111.15c-10.29-7.31-9.26-18,2.31-24.67l49.68-28.67,44.7-25.82c11.56-6.64,30-7.24,42.62-1.28l60.7,25.27C1170.6,2062.86,1171.64,2075.53,1158.3,2083.26Z"/><path class="cls-7" d="M1059.5,2128.26l-65,19.79-45.85-33.31c-10.29-7.3-9.25-18,2.31-24.65l68.63-39.62Z"/><path class="cls-8" d="M1134.39,1810.67c0-93.07,2.65-203.64-18.43-263.58h-18.73L932,1642.51l37.16,109.7c21.07,59.94,59.07,26.71,59.07,119.78l7.76,242.66,23.56,13.61Z"/><path class="cls-10" d="M969.11,1752.21c13.63,47.47,59.07,34.07,59.07,119.78l-21.79,209.17,29.55,33.49L1057.68,1890c0-37.7-61.25-31.2-65.24-54.68C988.07,1809.7,977.32,1775.79,969.11,1752.21Z"/><path class="cls-11" d="M1127.83,1875.79l6.66,209.17-75,43.29,19.5-257.52c0-37.7-59,.73-63-22.76-5.87-34.5-15.65-60.09-28.19-95.77l-37.16-109.7L1116,1547.09l37.16,109.7c12.54,35.66,22.32,61.27,28.2,95.77C1185.31,1776,1127.83,1838.09,1127.83,1875.79Z"/><polygon class="cls-12" points="1111.16 1569.68 965.17 1653.96 1017.05 1807.28 1163.04 1722.99 1111.16 1569.68"/><polygon class="cls-13" points="1103.11 1576.23 965.17 1655.87 1014.19 1800.73 1152.13 1721.09 1103.11 1576.23"/><polygon class="cls-14" points="1103.11 1576.23 965.17 1655.87 1014.19 1800.73 1103.11 1576.23"/><path class="cls-15" d="M1047,1902.15l.1,2.22Z"/><polygon class="cls-9" points="931.95 1642.51 950.69 1642.51 1115.96 1547.09 1097.23 1547.09 931.95 1642.51"/><polygon class="cls-9" points="1096.97 1623.43 1006.21 1675.83 1032.74 1753.53 1123.5 1701.13 1096.97 1623.43"/><polygon class="cls-11" points="1101.23 1635.91 1010.47 1688.3 1032.74 1753.53 1123.5 1701.13 1101.23 1635.91"/><polygon class="cls-16" points="786 67.38 3090.54 1395.91 3090.54 394.59 786.02 -933.94 786 67.38"/><polygon class="cls-17" points="3090.54 1395.92 3089.45 1396.42 785.62 68.25 785.62 46.19 3090.54 1373.85 3090.54 1395.92"/><polygon class="cls-18" points="2006.15 -90.94 2006.15 870.25 1178.59 392.12 1178.59 -569.01 2006.15 -90.94"/><polygon class="cls-19" points="2087.48 -137.85 2087.48 823.29 2006.17 870.23 2006.17 -90.91 2087.48 -137.85"/><polygon class="cls-7" points="2006.17 870.23 2159.66 870.23 2159.66 -36.65 2087.48 -137.85 2087.48 823.29 2006.17 870.23"/><polygon class="cls-20" points="1576.4 26.07 1576.4 218.3 1264.29 38.15 1264.29 -154.09 1524.77 -3.73 1543.99 7.39 1576.4 26.07"/><polygon class="cls-21" points="1275.38 -134.58 1275.38 28.65 1565.34 196.06 1565.34 32.79 1278.45 -132.82 1275.38 -134.58"/><polygon class="cls-22" points="1563.13 35.36 1563.13 188.24 1279.97 24.75 1279.97 -128.09 1563.13 35.36"/><polygon class="cls-23" points="1275.38 -134.58 1275.38 -129.78 1562.27 35.87 1565.34 192.45 1565.34 32.79 1278.45 -132.82 1275.38 -134.58"/><polygon class="cls-23" points="1582.68 214.42 1576.38 218.33 1576.38 26.13 1582.68 22.22 1582.68 214.42"/><polygon class="cls-23" points="1275.38 -134.58 1275.38 28.6 1278.45 26.84 1278.45 -132.82 1275.38 -134.58"/><polygon class="cls-24" points="1582.68 22.22 1576.38 26.13 1264.29 -154.04 1270.59 -157.94 1582.68 22.22"/><polygon class="cls-24" points="1275.38 28.6 1275.38 28.65 1565.34 196.06 1565.34 192.45 1278.45 26.84 1275.38 28.6"/><polygon class="cls-20" points="1576.4 -177.16 1576.4 15.07 1264.29 -165.08 1264.29 -357.31 1524.77 -206.96 1543.99 -195.84 1576.4 -177.16"/><polygon class="cls-23" points="1582.68 11.2 1576.38 15.11 1576.38 -177.1 1582.68 -181.01 1582.68 11.2"/><polygon class="cls-20" points="1896.6 210.84 1896.6 403.08 1584.49 222.93 1584.49 30.69 1844.97 181.05 1864.2 192.17 1896.6 210.84"/><polygon class="cls-21" points="1595.58 50.2 1595.58 213.43 1885.54 380.84 1885.54 217.57 1598.66 51.96 1595.58 50.2"/><polygon class="cls-25" points="1883.33 220.14 1883.33 373.02 1600.17 209.53 1600.17 56.69 1883.33 220.14"/><polygon class="cls-23" points="1595.58 50.2 1595.58 54.99 1882.48 220.64 1885.54 377.23 1885.54 217.57 1598.66 51.96 1595.58 50.2"/><polygon class="cls-23" points="1902.88 399.2 1896.58 403.11 1896.58 210.91 1902.88 207 1902.88 399.2"/><polygon class="cls-23" points="1595.58 50.2 1595.58 213.38 1598.66 211.62 1598.66 51.96 1595.58 50.2"/><polygon class="cls-24" points="1902.88 207 1896.58 210.91 1584.49 30.74 1590.79 26.84 1902.88 207"/><polygon class="cls-24" points="1595.58 213.38 1595.58 213.43 1885.54 380.84 1885.54 377.23 1598.66 211.62 1595.58 213.38"/><polygon class="cls-20" points="1896.6 7.62 1896.6 199.85 1584.49 19.7 1584.49 -172.54 1844.97 -22.18 1864.2 -11.06 1896.6 7.62"/><polygon class="cls-21" points="1595.58 -153.03 1595.58 10.2 1885.54 177.61 1885.54 14.34 1598.66 -151.27 1595.58 -153.03"/><polygon class="cls-26" points="1883.33 16.91 1883.33 169.79 1600.17 6.3 1600.17 -146.53 1883.33 16.91"/><polygon class="cls-23" points="1595.58 -153.03 1595.58 -148.24 1882.48 17.41 1885.54 174 1885.54 14.34 1598.66 -151.27 1595.58 -153.03"/><polygon class="cls-23" points="1902.88 195.98 1896.58 199.88 1896.58 7.68 1902.88 3.77 1902.88 195.98"/><polygon class="cls-23" points="1595.58 -153.03 1595.58 10.15 1598.66 8.39 1598.66 -151.27 1595.58 -153.03"/><polygon class="cls-24" points="1902.88 3.77 1896.58 7.68 1584.49 -172.49 1590.79 -176.39 1902.88 3.77"/><polygon class="cls-24" points="1595.58 10.15 1595.58 10.2 1885.54 177.61 1885.54 174 1598.66 8.39 1595.58 10.15"/><polygon class="cls-7" points="2288.5 1407.28 2333.15 1406.44 2412.86 1272.9 2376.78 1258.45 2199.46 1361.32 2288.5 1407.28"/><path class="cls-8" d="M2470.81,1324.76V1316l-5.45.75a27.74,27.74,0,0,0-6.18-3.89l-60.68-25.3c-12.63-5.93-31-5.36-42.63,1.33l-94.38,54.49a27.21,27.21,0,0,0-2.38,1.56l-7,1v8.58l0,0c-.07,4.14,2.24,8.29,7.06,11.72l46.29,33.61c11.87,8.42,33.81,9,47.19,1.3l108.77-62.8C2468,1334.55,2471,1329.62,2470.81,1324.76Z"/><path class="cls-9" d="M2461.45,1329.56l-108.8,62.77c-13.34,7.73-35.32,7.13-47.19-1.28l-.43-.3-45.85-33.31c-10.29-7.3-9.25-18,2.32-24.66l49.68-28.67,44.69-25.82c11.57-6.64,30-7.25,42.63-1.28l60.7,25.27C2473.75,1309.16,2474.79,1321.82,2461.45,1329.56Z"/><path class="cls-7" d="M2362.65,1374.55l-65,19.8L2251.76,1361c-10.29-7.3-9.25-18,2.31-24.66l68.62-39.61Z"/><path class="cls-8" d="M2437.54,1057c0-93.07,2.64-203.64-18.43-263.58h-18.73L2235.1,888.81l37.16,109.7c21.07,59.94,59.06,26.71,59.06,119.78l7.77,242.66,23.56,13.6Z"/><path class="cls-10" d="M2272.26,998.51c13.63,47.47,59.06,34.07,59.06,119.78l-21.78,209.17,29.55,33.49,21.74-224.65c0-37.7-61.25-31.2-65.24-54.68C2291.22,1056,2280.46,1022.09,2272.26,998.51Z"/><path class="cls-11" d="M2431,1122.09l6.67,209.17-75,43.29,19.5-257.52c0-37.7-58.95.73-62.95-22.76-5.87-34.5-15.65-60.09-28.2-95.77l-37.15-109.7,165.27-95.41,37.16,109.7c12.54,35.65,22.32,61.27,28.19,95.76C2488.46,1022.34,2431,1084.39,2431,1122.09Z"/><polygon class="cls-12" points="2414.31 815.98 2268.32 900.26 2320.2 1053.58 2466.18 969.29 2414.31 815.98"/><polygon class="cls-13" points="2406.26 822.53 2268.32 902.17 2317.34 1047.03 2455.28 967.39 2406.26 822.53"/><polygon class="cls-14" points="2406.26 822.53 2268.32 902.17 2317.34 1047.03 2406.26 822.53"/><path class="cls-15" d="M2350.18,1148.45l.1,2.22Z"/><polygon class="cls-9" points="2235.1 888.81 2253.84 888.8 2419.11 793.39 2400.38 793.39 2235.1 888.81"/><polygon class="cls-9" points="2400.12 869.73 2309.36 922.12 2335.89 999.83 2426.65 947.43 2400.12 869.73"/><polygon class="cls-11" points="2404.38 882.2 2313.62 934.6 2335.89 999.83 2426.65 947.43 2404.38 882.2"/><path class="cls-7" d="M736.5,606.92,177.73,928.15h0c-43.95,25.9-43.6,89.58.63,115l1162.07,667.51a386.75,386.75,0,0,0,106.11,41.6l123.32,28.35a387.13,387.13,0,0,0,279-41.28l364.47-208.55c26.33-15.07,26.44-53,.18-68.23Z"/><path class="cls-27" d="M1412.69,1644.45s61.08,11.59,132.81-56.68l19.16-146L969.85,1034.29,536.16,796.18,353.81,762.6l-42.9,117.51,81.3,108.94,93,114.3s32-2.78,68.58-22.74c11-6,45-25.38,45-25.38L1069.1,1301.5l92.28,62.87,80.93,107.49Z"/><path class="cls-28" d="M1810.85,796.18s19.47-71-11.19-94.75S1744,796.18,1744,796.18Z"/><path class="cls-29" d="M1473.77,1563.73c0,72.31-51.08,101.43-114.09,65S1245.6,1504.31,1245.6,1432s51.07-101.42,114.08-65S1473.77,1491.44,1473.77,1563.73Z"/><path class="cls-30" d="M1473.76,1563.73c0,72.31-51.07,101.43-114.08,65S1245.6,1504.31,1245.6,1432s51.07-101.42,114.08-65S1473.76,1491.44,1473.76,1563.73Z"/><path class="cls-31" d="M1466.65,1562.43c0,69.55-49.13,97.56-109.75,62.56s-109.75-119.74-109.75-189.29,49.15-97.56,109.75-62.57S1466.65,1492.87,1466.65,1562.43Z"/><path class="cls-32" d="M1451.16,1553.81c0,59.23-41.85,83.09-93.46,53.29s-93.46-102-93.46-161.21,41.84-83.08,93.46-53.27S1451.16,1494.59,1451.16,1553.81Z"/><path class="cls-33" d="M1448.24,1547.64c0,56.14-39.66,78.75-88.58,50.5s-88.57-96.64-88.57-152.77,39.65-78.76,88.57-50.51S1448.24,1491.51,1448.24,1547.64Z"/><path class="cls-34" d="M1277.44,1462.32c3.71,32.22,19.86,69,45.34,98.27s54.29,43.9,77.42,42.46c10.23-.69,19.33-4.47,26.46-11.68a36.85,36.85,0,0,0,6.3-7.88c.37-.61.75-1.14,1.06-1.75a44.8,44.8,0,0,0,3.33-6.9,67.44,67.44,0,0,0,3.19-10.08,91.22,91.22,0,0,0,2.12-20.25c0-3.26-.15-6.59-.45-9.93-.08-1.75-.31-3.41-.53-5.08-.16-1.14-.31-2.28-.46-3.42s-.3-2.12-.53-3.18c-.53-3.18-1.14-6.45-2-9.71-.38-1.59-.76-3.1-1.22-4.7a34.28,34.28,0,0,0-1.13-3.94c-.54-1.89-1.14-3.87-1.82-5.76-.46-1.44-.91-2.88-1.44-4.25a180.61,180.61,0,0,0-7.74-18.27c-.6-1.29-1.21-2.5-1.82-3.71-2.12-4.1-4.32-8.12-6.75-12.14l-1.82-3c-1.13-1.83-2.35-3.64-3.48-5.39a198.44,198.44,0,0,0-14.94-19.64c-2.73-3.11-5.46-6.06-8.27-8.79-1.28-1.37-2.65-2.66-3.94-3.87-.38-.38-.83-.76-1.21-1.14-1.07-1-2.2-2-3.26-2.88-13.2-11.45-26.69-19.18-39.43-23-22.45-6.75-42.54-1.52-54.07,16.83-.37.54-.75,1.14-1.05,1.67a57.63,57.63,0,0,0-5.24,12.13C1276.6,1434.72,1275.77,1448.06,1277.44,1462.32Z"/><path class="cls-35" d="M1386.93,1435.4l.83,24.87c9.33-.76,18.58-1.67,27.22-2.8-1.13-1.83-2.35-3.64-3.48-5.39a198.44,198.44,0,0,0-14.94-19.64c-2.73-3.11-5.46-6.06-8.27-8.79-1.28-1.37-2.65-2.66-3.94-3.87-.38-.38-.83-.76-1.21-1.14-1.07-1-2.2-2-3.26-2.88-13.2-11.45-26.69-19.18-39.43-23-22.45-6.75-42.54-1.52-54.07,16.83C1350.76,1387.48,1386.93,1435.4,1386.93,1435.4Z"/><path class="cls-35" d="M1282.74,1461.94s21.46,28.43,43.53,35.94S1391,1557,1391,1557l-3.26-96.75C1337.34,1464.06,1282.74,1461.94,1282.74,1461.94Z"/><path class="cls-36" d="M1327,1445.26c3.19,27.67,17.06,59.29,39,84.39,12,13.88,25.09,24,37.61,29.88v.07c10.15,4.85,19.94,7.06,28.81,6.52a9.61,9.61,0,0,0,2.05-.23,27.85,27.85,0,0,0,6.14-1.13,91.22,91.22,0,0,0,2.12-20.25c0-3.26-.15-6.59-.45-9.93-.08-1.75-.31-3.41-.53-5.08-.16-1.14-.31-2.28-.46-3.42s-.3-2.12-.53-3.18c-.53-3.18-1.14-6.45-2-9.71-.38-1.59-.76-3.1-1.22-4.7a34.28,34.28,0,0,0-1.13-3.94c-.54-1.89-1.14-3.87-1.82-5.76-.46-1.44-.91-2.88-1.44-4.25a180.61,180.61,0,0,0-7.74-18.27c-.6-1.29-1.21-2.5-1.82-3.71-2.12-4.1-4.32-8.12-6.75-12.14-1.67-2.8-3.48-5.61-5.3-8.34a198.44,198.44,0,0,0-14.94-19.64c-2.73-3.11-5.46-6.06-8.27-8.79-1.28-1.37-2.65-2.66-3.94-3.87-.38-.38-.83-.76-1.21-1.14-1.07-1-2.2-2-3.26-2.88-13.2-11.45-26.69-19.18-39.43-23a39.7,39.7,0,0,0-6.75,8.72,49.42,49.42,0,0,0-4.48,10.39,75.3,75.3,0,0,0-2.88,17.59A103,103,0,0,0,1327,1445.26Z"/><path class="cls-37" d="M1390.68,1491.72l-2.08,19.43v.08l2.08-19.51,15.13-8.78,11-22.52c-1.67-2.8-3.48-5.61-5.3-8.34a198.44,198.44,0,0,0-14.94-19.64c-2.73-3.11-5.46-6.06-8.27-8.79-1.28-1.37-2.65-2.66-3.94-3.87-.38-.38-.83-.76-1.21-1.14-3,1.74-5.39,3.26-5.54,3.41l18.94,21.79Z"/><path class="cls-38" d="M1390.68,1491.72l-2.08,19.43v.08l14.94,48.3,6.67,21.76c2.27,4.77-4.48,15.62-1.37,15,5-1,17.44-8.34,24.12-12.81.37-.61.75-1.14,1.06-1.75a44.8,44.8,0,0,0,3.33-6.9,11,11,0,0,0-1.14-3.49l-1.81-5.46-27.3-80.37-1.29-2.58Z"/><path class="cls-39" d="M1299.4,1419.53c1.27-.67,3-.53,4.87.55l72.47,30.68,2,1.17.08,38.9-16.1-9.25L1302.69,1458a15.59,15.59,0,0,1-7-11.72c-.41-8.5-13.51-10.35-11.89-17.7C1284.07,1427.21,1298.44,1420,1299.4,1419.53Z"/><path class="cls-40" d="M1375.66,1522.52l31.48-64.72c1.55-2.69.6-7.6-2.28-11.51s-6.14-8-9.47-11.82-6.71-7.37-10.14-10.66-6.9-3.48-8.45-.79l-31.48,64.72Z"/><path class="cls-40" d="M1363.68,1499.59l-.08-38.91-2-1.17-72.48-30.67c-3.27-1.89-6.12-.93-6.83,2.32a91.06,91.06,0,0,0-1.78,23.9,15.62,15.62,0,0,0,7,11.72l60.06,23.55Z"/><path class="cls-40" d="M1420.83,1590c2.11-1.65,2.19-5.79.22-9.92l-29.14-85.8-1.23-2.58-27,7.87,9.72,20.34,21.65,70.12c2.26,4.74,6.45,7.92,9.57,7.31A37.81,37.81,0,0,0,1420.83,1590Z"/><path class="cls-41" d="M1404.64,1587.77a7.33,7.33,0,0,1-1.15-1.75l-22.2-71.28L1353.6,1483l-61.41-24.33a6.68,6.68,0,0,1-2.35-4.05,89.78,89.78,0,0,1,.4-14.34l74.77,32,16.62-38.91q3.43,3.48,6.71,7.24c3.11,3.57,6.13,7.34,9,11.22a6.9,6.9,0,0,1,1.12,2.31l-17.1,39.74,31.34,90.43A28.63,28.63,0,0,1,1404.64,1587.77Z"/><path class="cls-29" d="M544,1022.64c0,72.3-51.08,101.42-114.09,65.05S315.78,963.21,315.78,890.9s51.08-101.41,114.09-65S544,950.34,544,1022.64Z"/><path class="cls-42" d="M544,1022.64c0,72.3-51.07,101.42-114.08,65.05S315.78,963.21,315.78,890.9s51.08-101.41,114.09-65S544,950.34,544,1022.64Z"/><path class="cls-43" d="M536.83,1021.33c0,69.55-49.13,97.56-109.74,62.57S317.34,964.15,317.34,894.6,366.48,797,427.09,832,536.83,951.77,536.83,1021.33Z"/><path class="cls-32" d="M521.34,1012.71c0,59.23-41.84,83.09-93.45,53.29s-93.47-102-93.47-161.2,41.85-83.08,93.47-53.28S521.34,953.49,521.34,1012.71Z"/><path class="cls-33" d="M518.42,1006.54c0,56.14-39.65,78.75-88.57,50.51s-88.58-96.65-88.58-152.78,39.65-78.75,88.58-50.5S518.42,950.41,518.42,1006.54Z"/><path class="cls-44" d="M347.62,921.22c3.72,32.23,19.87,69,45.35,98.27s54.29,43.9,77.41,42.46c10.24-.69,19.34-4.47,26.46-11.68a36,36,0,0,0,6.3-7.88c.38-.61.75-1.14,1.06-1.75a43.94,43.94,0,0,0,3.34-6.9,68.23,68.23,0,0,0,3.18-10.08,90.6,90.6,0,0,0,2.13-20.24c0-3.27-.15-6.6-.46-9.94-.07-1.74-.3-3.41-.53-5.08-.15-1.14-.3-2.28-.46-3.41s-.3-2.12-.53-3.19c-.53-3.18-1.13-6.44-2-9.7-.38-1.59-.75-3.11-1.21-4.7a32.06,32.06,0,0,0-1.14-3.95c-.53-1.89-1.13-3.86-1.82-5.76-.45-1.44-.91-2.88-1.44-4.24a182,182,0,0,0-7.73-18.28c-.61-1.29-1.22-2.5-1.82-3.71-2.12-4.1-4.32-8.12-6.75-12.14l-1.82-3c-1.14-1.82-2.35-3.64-3.49-5.38a197.4,197.4,0,0,0-14.94-19.65c-2.73-3.1-5.46-6.06-8.26-8.79-1.29-1.37-2.65-2.65-4-3.87-.37-.38-.83-.76-1.21-1.14-1.06-1-2.2-2-3.26-2.88-13.19-11.45-26.69-19.18-39.43-23-22.44-6.75-42.53-1.52-54.06,16.84a19.19,19.19,0,0,0-1.06,1.66,57.83,57.83,0,0,0-5.23,12.13C346.79,893.62,346,907,347.62,921.22Z"/><path class="cls-35" d="M457.11,894.3l.84,24.87c9.32-.76,18.58-1.66,27.22-2.8-1.14-1.82-2.35-3.64-3.49-5.38a197.4,197.4,0,0,0-14.94-19.65c-2.73-3.1-5.46-6.06-8.26-8.79-1.29-1.37-2.65-2.65-4-3.87-.37-.38-.83-.76-1.21-1.14-1.06-1-2.2-2-3.26-2.88-13.19-11.45-26.69-19.18-39.43-23-22.44-6.75-42.53-1.52-54.06,16.84C420.94,846.38,457.11,894.3,457.11,894.3Z"/><path class="cls-35" d="M352.93,920.84s21.46,28.43,43.52,35.94,64.76,59.14,64.76,59.14L458,919.17C407.52,923,352.93,920.84,352.93,920.84Z"/><path class="cls-45" d="M397.14,904.16c3.18,27.67,17.06,59.29,39,84.39,12.06,13.88,25.1,24,37.61,29.88v.07c10.16,4.85,19.94,7.06,28.81,6.52a9.6,9.6,0,0,0,2.05-.22,27.76,27.76,0,0,0,6.14-1.14,90.6,90.6,0,0,0,2.13-20.24c0-3.27-.15-6.6-.46-9.94-.07-1.74-.3-3.41-.53-5.08-.15-1.14-.3-2.28-.46-3.41s-.3-2.12-.53-3.19c-.53-3.18-1.13-6.44-2-9.7-.38-1.59-.75-3.11-1.21-4.7a32.06,32.06,0,0,0-1.14-3.95c-.53-1.89-1.13-3.86-1.82-5.76-.45-1.44-.91-2.88-1.44-4.24a182,182,0,0,0-7.73-18.28c-.61-1.29-1.22-2.5-1.82-3.71-2.12-4.1-4.32-8.12-6.75-12.14-1.67-2.8-3.49-5.61-5.31-8.33a197.4,197.4,0,0,0-14.94-19.65c-2.73-3.1-5.46-6.06-8.26-8.79-1.29-1.37-2.65-2.65-4-3.87-.37-.38-.83-.76-1.21-1.14-1.06-1-2.2-2-3.26-2.88-13.19-11.45-26.69-19.18-39.43-23a40.24,40.24,0,0,0-6.75,8.72,50.16,50.16,0,0,0-4.47,10.39,74.78,74.78,0,0,0-2.88,17.59A101.8,101.8,0,0,0,397.14,904.16Z"/><path class="cls-46" d="M460.86,950.62l-2.08,19.43v.08l2.08-19.51L476,941.85l11-22.53c-1.67-2.8-3.49-5.61-5.31-8.33a197.4,197.4,0,0,0-14.94-19.65c-2.73-3.1-5.46-6.06-8.26-8.79-1.29-1.37-2.65-2.65-4-3.87-.37-.38-.83-.76-1.21-1.14-3,1.74-5.38,3.27-5.53,3.42l18.94,21.78Z"/><path class="cls-47" d="M460.86,950.62l-2.08,19.43v.08l14.94,48.3,6.67,21.76c2.28,4.78-4.47,15.62-1.36,15,5-1,17.44-8.34,24.11-12.81.38-.61.75-1.14,1.06-1.75a43.94,43.94,0,0,0,3.34-6.9,11,11,0,0,0-1.14-3.49l-1.82-5.45-27.3-80.38L476,941.85Z"/><path class="cls-48" d="M369.58,878.43c1.27-.67,3-.53,4.87.55l72.47,30.69,2,1.16.08,38.91-16.1-9.26-60.06-23.55a15.62,15.62,0,0,1-7-11.72c-.41-8.5-13.51-10.35-11.89-17.7C354.26,886.11,368.62,878.94,369.58,878.43Z"/><path class="cls-40" d="M445.84,981.42l31.49-64.72c1.54-2.68.6-7.6-2.28-11.51q-4.49-6.09-9.47-11.82c-3.33-3.8-6.71-7.37-10.14-10.66s-6.91-3.48-8.45-.79l-31.48,64.72Z"/><path class="cls-40" d="M433.87,958.49l-.08-38.9-2-1.17-72.47-30.68c-3.28-1.88-6.13-.93-6.84,2.32a91.09,91.09,0,0,0-1.78,23.9,15.68,15.68,0,0,0,7,11.73l60.06,23.54Z"/><path class="cls-40" d="M491,1048.92c2.12-1.65,2.2-5.78.22-9.92l-29.14-85.8-1.23-2.58-27,7.87,9.71,20.34L465.23,1049c2.26,4.73,6.46,7.91,9.57,7.3A37.76,37.76,0,0,0,491,1048.92Z"/><path class="cls-41" d="M474.83,1046.67a7.12,7.12,0,0,1-1.16-1.75l-22.2-71.28L423.78,941.9l-61.41-24.33a6.75,6.75,0,0,1-2.35-4.05,89.78,89.78,0,0,1,.4-14.34l74.78,32,16.62-38.9c2.28,2.31,4.52,4.74,6.7,7.23,3.12,3.57,6.13,7.34,9,11.22a7,7,0,0,1,1.12,2.31l-17.1,39.75,31.34,90.42A28.76,28.76,0,0,1,474.83,1046.67Z"/><path class="cls-28" d="M223.5,718.7a178.72,178.72,0,0,0,3.5,35.38c16.26,81.29,83.91,126,83.91,126a147,147,0,0,1,7.82-36.42c13-36.46,47.2-79.11,135.9-18.15C589.73,918.37,585,1093.2,585,1093.2l657.27,378.66s-34.53-99.84,34.31-130.06c35-15.39,68.88-7.66,101.17,13.92-35.42-63.64-126.26-120.6-126.26-120.6S789,937.24,572.11,780.22C403.8,658.4,286.84,535.6,242.83,486.67c-.44,3.36-.93,7-1.43,10.95-3.57,27.29-8.44,67.76-12.2,110.67-.84,9.63-1.65,19.42-2.34,29.2-.24,3.15-.45,6.3-.66,9.45C224.55,671.78,223.5,696.38,223.5,718.7Z"/><path class="cls-49" d="M242.83,486.67c44,48.93,161,171.73,329.28,293.55,216.93,157,679.42,454.9,679.42,454.9s90.84,57,126.26,120.6c1.91,1.27,3.81,2.58,5.69,4a268,268,0,0,1,33.14,28.78c52-14,233.61-54.57,384.75,17.36,0,0,23.76,8.62,24.48,26.61-6.22,16.63-16.91,29.54-28.54,39.41h0l-202.41-6.93-127.75-16c56.67,77.59,74.15,171,74.15,171,47.93,22.15,111.21,27.9,181.64,17.54,83.95-12.32,178-47.51,268.42-105,166.19-105.76,193.18-174.41,193.18-174.41l-.36-5.5-4.46-69.41-11.37-9.7c15.11-43.18,10.8-84.18,10.8-84.18-7.38-45.84-32.23-91-64.93-132.82C2067,996.21,2003.6,943.16,1953,905.75c-48.11-35.55-84.67-57-84.67-57s-292.48-269.31-375-332.44-268.74-171.63-369.11-213.71c-79.22-33.22-256-107.11-441-105-49.37.6-99.31,6.6-148.13,20.23-231.69,64.76-288.91,245-288.91,245s-.19,1.29-.53,3.7C245.05,470.54,244.08,477.43,242.83,486.67Z"/><path class="cls-50" d="M242.83,486.67c44,48.93,161,171.73,329.28,293.55,216.93,157,679.42,454.9,679.42,454.9s90.84,57,126.26,120.6c1.91,1.27,3.81,2.58,5.69,4-14.27-32.85-54.57-89.09-167.06-163.42-186.18-123-552-359.39-663.74-446.83C453.43,671.8,313.77,546.89,245.62,466.61,245.05,470.54,244.08,477.43,242.83,486.67Z"/><path class="cls-27" d="M315.77,403s91.75,16,217.53,59.11c1.59.53,3.21,1.1,4.82,1.65,103.25,35.72,228.58,89.53,344.81,167.5,260.64,174.83,467.75,518.05,467.75,518.05,304.26-87.43,517.61-300.54,517.61-300.54s-292.48-269.31-375-332.44-268.74-171.63-369.11-213.71c-44-18.45-118.11-49.45-207-73l-4.86-1.27c-69.94-18.22-148.75-31.62-229.09-30.69C496.63,239.66,315.77,403,315.77,403Z"/><path class="cls-51" d="M928.26,648.55s116.56,79.87,220.17,203.07,194.26,260.47,194.26,260.47c257.45-68,452.87-230.4,491.61-264.23a9.12,9.12,0,0,0,.63-13.11c-23.77-25.19-113.28-117.49-257-235.85-104.26-85.89-182.87-138-227.86-165.45-28-17.05-43-24.49-43-24.49-5.43,5.81-11.24,11.6-17.37,17.39v0c-14.1,13.32-29.89,26.59-46.79,39.63C1116.6,563.5,928.26,648.55,928.26,648.55Z"/><path class="cls-27" d="M533.3,462.13c1.59.53,3.21,1.1,4.82,1.65,103.25,35.72,228.58,89.53,344.81,167.5,260.64,174.83,467.75,518.05,467.75,518.05,304.26-87.43,517.61-300.54,517.61-300.54s-292.48-269.31-375-332.44-268.74-171.63-369.11-213.71c-44-18.45-118.11-49.45-207-73l-4.86-1.27C825.84,268.93,640.06,362.37,533.3,462.13Z"/><path class="cls-27" d="M433.86,561.13c8.52,12.24,24.32,28.77,44.76,47.89,23.53,22,53.18,47.39,84.93,73.58C613,723.39,667.57,766.06,712,800.72c17.21,13.43,46.27,33.48,82.48,57.41,15.3,10.12,31.91,20.94,49.43,32.27,1.9,1.21,3.81,2.45,5.73,3.68q12.68,8.14,25.89,16.61c174.09,111.24,411.51,254.83,414.13,256.42-1.86-3.53-171.28-322.76-325.83-438.69-24-18-46.3-34.2-67.12-48.76q-8.06-5.61-15.79-10.93l-5.85-4q-12.18-8.28-23.72-15.81c-88.28-57.81-150-85.49-218.5-113.73-7.29-3-14.86-5.9-22.57-8.64-27.5-9.85-57.17-18.18-85.28-25-66.12-16.06-123.63-23.9-123.63-23.9S400.32,512.92,433.86,561.13Z"/><path d="M794.52,858.13c24.26,16,51.76,33.84,81.05,52.56,7.44-78.22,16.87-182.8,21.18-231-15.92-11.12-31-21.33-45.36-30.71Z"/><path d="M478.62,609c23.53,22,53.18,47.39,84.93,73.58l46.77-156c-27.5-9.85-57.17-18.18-85.28-25Z"/><path class="cls-52" d="M1350.11,433.45l47.64,92.6h14.14a32.31,32.31,0,0,1,30.57,21.82l15.18,44.2c126.27,69.29,377.29,242.68,377.29,242.68-23.77-25.19-113.28-117.49-257-235.85C1473.71,513,1395.1,460.86,1350.11,433.45Z"/><path class="cls-52" d="M1242.91,466l98.17,60-51.38-99.68C1275.6,439.69,1259.81,453,1242.91,466Z"/><polygon class="cls-53" points="1350.68 1149.33 1671.87 1331.72 1376.6 1141.51 1350.68 1149.33"/><path class="cls-53" d="M1868.29,848.79s94.26,89.36,183.47,236.14L1953,905.75C1904.85,870.2,1868.29,848.79,1868.29,848.79Z"/><path class="cls-54" d="M2110,1208.64c.17,4.76.4,9.51.66,14.2,5.11,1.61,23.94,5,33.9-27.11,5.47-17.67,6.76-52.33,6.57-84q-6.52-11.91-14.18-23.63c-7-10.73-14.61-21.3-22.7-31.64C2114.2,1056.44,2107.18,1135.19,2110,1208.64Z"/><path class="cls-50" d="M2110.61,1222.84c.76,13.83,1.92,27.27,3.61,39.72,36.71-12.3,52.88-59.08,60-95.56a262.71,262.71,0,0,0-23.12-55.29c.19,31.69-1.1,66.35-6.57,84C2134.55,1227.85,2115.72,1224.45,2110.61,1222.84Z"/><path class="cls-53" d="M1797.31,1471.86c-23.48,20-50.85,27.52-53.3,28.18,61.06-10.7,100.54,11.56,100.54,11.56s85.62-25.19,177.71-89.93,136-136.67,136-136.67l-36.9-22.44-10.78,7.1-143.75,90.84-141,72C1819.63,1449.08,1808.94,1462,1797.31,1471.86Z"/><path class="cls-50" d="M1416.62,1388.48c17.2,17.38,33.9,37.84,50,59.8.17.23.34.44.48.67l127.75,16,202.41,6.93h0c11.63-9.87,22.32-22.78,28.54-39.41-.72-18-24.48-26.61-24.48-26.61l-1.71-.81c-97.58-45.82-207.59-45.14-287.11-35.15A721.22,721.22,0,0,0,1416.62,1388.48Z"/><path class="cls-54" d="M1512.55,1369.88c11.35,56.73,88.1,71.93,88.1,71.93l156.84-3.59,42.17-33.19a383.67,383.67,0,0,0-40.16-16.12C1672.89,1359.57,1581.31,1361.24,1512.55,1369.88Z"/><path class="cls-50" d="M1505.66,1504.41c30.95,19.43,54,93,54,93,93,35,226.66,0,226.66,0l51.13-52.86C1995,1501.28,2118,1382.69,2118,1382.69h29l32.74-35.59-5.5-60s-40.2,119.1-254.83,212.73c-47.93,20.9-98.28,31.47-146.72,35.59-64.8,5.52-126.18-.51-173.69-8.65C1542.57,1517.12,1505.66,1504.41,1505.66,1504.41Z"/><path class="cls-50" d="M1722.92,1637.48c83.95-12.32,178-47.51,268.42-105,166.19-105.76,193.18-174.41,193.18-174.41l-.36-5.5c-22,28.56-98.62,121.17-200,170C1878.47,1573.36,1780.51,1612.2,1722.92,1637.48Z"/><path class="cls-53" d="M1747.41,1549.73s-17.26,27.36-41.72,41-74.83,6.68-74.83,6.68l-29.49-47.7,98.56-5.15Z"/><path class="cls-54" d="M1599,1526.79l2.41,22.94a145.72,145.72,0,0,0,28,41,471.81,471.81,0,0,0,48.93-3c15-1.77,27.93-14.91,36-25.26a32.68,32.68,0,0,1,25.82-12.78h7.3l25.32-14.29h-.08C1707.85,1541,1646.47,1534.93,1599,1526.79Z"/><path class="cls-50" d="M1213.68,1379.78v39.34L598,1062.05s4.86-26.34-8.09-58.57Z"/><path class="cls-54" d="M229.2,608.29c13.47,10.8,23.87,17.56,31.86,21.71a15.64,15.64,0,0,0,22.68-16.1c-8.51-59.63-27.85-96.24-42.34-116.28C237.83,524.91,233,565.38,229.2,608.29Z"/><path class="cls-55" d="M1210.51,1418.12h6.34V1312.44a617.69,617.69,0,0,1,6.09-86.36l15-106v-51.45h-6.34v51.23l-14.94,105.37a624.33,624.33,0,0,0-6.15,87.25Z"/><path class="cls-55" d="M848.26,1160.79l-9.72,41.06,6.17,1.46,10.15-42.88-.32-.89c-22.74-63.7-21.68-193.64-21.6-201.64l16.74-64.25.36-1.35L881,668.55l-5.85-4L844,890l-.17,1.26L826.62,957l0,.38C826.51,963,824.84,1094,848.26,1160.79Z"/><polygon class="cls-55" points="442.5 786.79 457.72 669.3 536.16 504.98 530.44 502.25 451.56 667.48 436.2 785.97 442.5 786.79"/><path class="cls-50" d="M227,754.08c10.72,53.58,43.75,91.28,65,110.75q3.56,3.27,6.61,5.81a149.2,149.2,0,0,0,12.26,9.47,147,147,0,0,1,7.82-36.42c-4.63-3-11-7.31-18.24-12.68q-2.79-2.06-5.75-4.33C272.19,809.45,243.24,783.52,227,754.08Z"/><path class="cls-28" d="M1585.54,1400.26l15.11,41.55,156.84-3.59,42.17-33.19a383.67,383.67,0,0,0-40.16-16.12l-12.09,14.18Z"/><path class="cls-28" d="M2110,1208.64c.17,4.76.4,9.51.66,14.2,5.11,1.61,23.94,5,33.9-27.11,5.47-17.67,6.76-52.33,6.57-84q-6.52-11.91-14.18-23.63l-12.83,1.88S2129.67,1169.84,2110,1208.64Z"/><path class="cls-50" d="M2110.61,1269.66s-56.14,35.62-110.65,64.76-155.41,90.12-155.41,90.12,122.5-54,165.67-61.52C2010.22,1363,2076,1299.85,2110.61,1269.66Z"/><path class="cls-55" d="M292,864.83q3.56,3.27,6.61,5.81A198.92,198.92,0,0,1,300.49,831c2.56-16.08,8-32.31,18.94-41.93,21.62-19,82.66-51.66,182.36,54.68,92.95,99.16,93.06,217.08,93,218.26l6.34.07c0-1.21,0-121.6-94.75-222.67C402.94,729,338.26,764.12,315.25,784.3c-11.52,10.1-17.51,26.21-20.51,42.38A187.53,187.53,0,0,0,292,864.83Z"/><path class="cls-55" d="M226.2,646.94c15.07,19.19,35.87,45.38,49.56,61.57,22.89,27.08,28.09,44.7,28.16,44.87l.27,1,.76.64,27.46,22.48,4-4.92-26.71-21.88c-1.44-4.22-8-21.32-29.11-46.24-15-17.73-38.61-47.58-53.74-66.92C226.62,640.64,226.41,643.79,226.2,646.94Z"/><path class="cls-50" d="M1268.76,1138.53s-111.16,2.7-160.27-7.55l11.34,10.53,151.09,7.82Z"/><polygon class="cls-49" points="1268.76 1138.53 1234.77 1120.72 1210.48 1118.92 1215.88 1138.53 1251.54 1141.51 1268.76 1138.53"/><path class="cls-28" d="M1234.77,1138.85s-6.48-28.92-28.6-46.73-46.41-9.71-65.3-3.77-39.93,15.11-32.38,42.63l32.38,7.87Z"/><path class="cls-7" d="M-767.53,1242.18l-630.95,362.73h0c-49.62,29.24-49.22,101.15.72,129.84L-85.58,2488.49a436.94,436.94,0,0,0,119.81,47l139.26,32a437.2,437.2,0,0,0,315.07-46.61l411.55-235.5c29.74-17,29.86-59.87.21-77Z"/><path class="cls-56" d="M-911.83,1130l277-59.61c17.87,8.62,192.86,12.42,225,31.7s-78.72,54-36.1,81.09c200.66,127.43,497.69,325.41,699.35,445,10.56,6.26,16,1.19,4.26-14.08C206.72,1547.81,76.52,1374.14,8,1331.48c68.74,17.28,311.29,285.23,330.11,306.86-1.78,14.6-3.7,29.18-5.22,43.82-3.61,34.69-6.16,69.53-8.08,104.41-20.28,22.36-620.77,225.16-614.7,243C-289.94,2029.52-1715.79,1350-911.83,1130Z"/><path class="cls-57" d="M-361.14,1450.64c-2-47.38,172.13-132.25,248.41-84.08-10.81,280.2,225.08,288.37,250.39,313.26,14.58,14.32,8.5,75.85-.46,84.81-30,30-174.13,122.43-234.09,81.21s-125.66-111.19-125.66-111.19S-357.76,1529.57-361.14,1450.64Z"/><path class="cls-58" d="M-31.43,1562.27c60,37.48,198.61,108.68,168.63,138.66s-174.13,122.42-234.09,81.2S-222.55,1671-222.55,1671Z"/><path class="cls-56" d="M251.38,1571.86c41.24,37.88,80.14,74.81,77.45,88.27s-403.92,271.13-533.17,252.28-102.9-61.26-82.74-90.44C-223.39,1729.76,209.56,1533.44,251.38,1571.86Z"/><path class="cls-59" d="M-1325.38,1569.51c30.23,47.81,64.25,66.13,64.25,66.13s29.3-125.13,126.76-73.32c102.79,54.65,132.88,158.93,128.49,247.21.08-1.57,674.93,389.68,674.93,389.68,0-36.81,20.93-168.45,129.78-105.61s142.94,193.91,138.66,260.75c201.65,80.56,228.82,117.77,327.29,94.82,67.46-15.72,179.17-52.57,269.68-105.73,142.23-83.54,232.6-156.63,259.64-224.85,4.31-10.89,9.4-71,3.55-113-5.85-1.55-17.93.94-17.93.94-9.91-38.66-2-10.17-54.3-73C638,1828.58,325,1606.91,312.14,1600.18c0,0-104.31-129.85-263.94-261.77-24.94-20.61-211.5-175.28-422.55-243.33-51.52-16.61-260.51-24.74-260.51-24.74s-155.47-81.78-172.21-75.19c-180.08,70.92-408.84,209.06-519.1,299.73-15.11,13.25-23.16,60.57-21.5,62.14C-1349.29,1370.51-1355.62,1521.69-1325.38,1569.51Zm957.63-2.4c138.84-45.57,261.08-101.22,383.64-221.52,13.73-13.22,215.79,177.59,284.24,272,20.39,28.12-72.52,103.45-201,176C-7.55,1853.91-209,1928.53-222.62,1909.11-295,1770-387.92,1573.73-367.75,1567.11Zm-667.33-131.53c-2.16-44.92,226.55-60.11,240.65-58.13,86,12.14,279.7,118.68,335.64,169.67,67.13,61.2,163.43,371.3,170.6,376.34C-872.94,1545.82-1033.85,1461-1035.08,1435.58Zm-80.44-93.86c52.13-81.07,328.61-247.63,459.39-259,14.14-1.23,144.79-.31,236.11,13.74.92.14,1.91.35,2.87.53-237.88,74.77-390,222.61-390,222.61C-836.36,1320.78-1133.61,1369.86-1115.52,1341.72Z"/><path class="cls-60" d="M-1325.38,1569.51c30.23,47.81,64.25,66.13,64.25,66.13s29.3-125.13,126.76-73.32c102.79,54.65,132.88,158.93,128.49,247.21.08-1.57,674.93,389.68,674.93,389.68,0-36.81,20.93-168.45,129.78-105.61s142.94,193.91,138.66,260.75c112.09,44.78,170.27,76.16,216.75,91.26,8.78-88.65,19.24-177.26,22.43-266.22-31.06-32.43-61.36-65.56-91.79-98.56-30.89-33.51-63.71-64.07-98-94-34.66-30.29-67.64-62.25-100.63-94.33l-3.87-3.78c-55.6,19.08-98.92,29.09-105,20.44C-295,1770-379.39,1598-368.94,1567.85c-211.8-198.57-438.16-248.24-438.16-248.24-29.26,1.17-326.51,50.25-308.42,22.11-94-32.76-185.13-55.53-210.65-46.84-15.11,13.25-23.16,60.57-21.5,62.14C-1349.29,1370.51-1355.62,1521.69-1325.38,1569.51Zm290.3-133.93c-2.16-44.92,226.55-60.11,240.65-58.13,86,12.14,279.7,118.68,335.64,169.67,67.13,61.2,163.43,371.3,170.6,376.34C-872.94,1545.82-1033.85,1461-1035.08,1435.58Z"/><path class="cls-54" d="M720.83,1931.44l-4.2-4.4,4.28,4.49Z"/><path d="M709.38,2102.33V1935.11L258.81,2212.65s-32.17,125.7-1.16,144C369.26,2422.5,709.38,2102.33,709.38,2102.33Z"/><path class="cls-61" d="M236,2307.21c33.89.32,73.64-3.24,102-14,169.9-64.72,272.27-136,348.68-203.89,15.73-14,45.83-45.68,64.2-74.08L745.67,2038c-18.12,24.6-41.9,49.32-55.27,61.2-76.42,67.89-178.78,139.18-348.68,203.89-30.87,11.76-75.28,14.93-110.9,13.86Z"/><path class="cls-62" d="M227.08,2291.37c33.89.32,73.64-3.24,102-14,169.9-64.72,272.27-136,348.68-203.89,15.73-14,45.83-45.68,64.19-74.08v28.72c-18.11,24.6-41.9,49.31-55.27,61.2-76.41,67.89-178.78,139.17-348.68,203.89-30.87,11.75-75.28,14.92-110.9,13.85Z"/><path class="cls-61" d="M226.19,2287c33.88.32,73.64-3.24,102-14,169.91-64.72,272.27-136,348.69-203.89,15.72-14,45.83-45.68,64.19-74.08l-5.18,22.77c-18.12,24.6-41.9,49.32-55.28,61.2-76.41,67.89-178.78,139.18-348.68,203.89-30.86,11.76-75.28,14.93-110.89,13.86Z"/><path class="cls-62" d="M217.27,2271.12c33.88.32,73.64-3.24,102-14,169.9-64.71,272.27-136,348.68-203.89,15.73-14,45.84-45.68,64.2-74.08v28.72c-18.12,24.6-41.9,49.31-55.27,61.2-76.42,67.89-178.78,139.17-348.69,203.89-30.86,11.76-75.27,14.92-110.89,13.85Z"/><path class="cls-61" d="M216.38,2266.71c33.88.32,73.64-3.24,102-14,169.9-64.71,272.27-136,348.68-203.89,15.73-14,45.84-45.68,64.2-74.08L726,1997.48c-18.11,24.6-41.89,49.32-55.27,61.2-76.41,67.89-178.78,139.18-348.68,203.89-30.87,11.76-75.28,14.93-110.9,13.86Z"/><path class="cls-62" d="M207.46,2250.87c33.88.32,73.64-3.24,102-14,169.9-64.71,272.27-136,348.68-203.89,15.73-14,45.83-45.68,64.2-74.08v28.72c-18.12,24.6-41.9,49.32-55.28,61.2-76.41,67.89-178.78,139.18-348.68,203.89-30.86,11.76-75.28,14.92-110.89,13.85Z"/><path class="cls-63" d="M634.31,2050.77s40.31,37.71,52.11,62.45c38.17-15.58,56.49-45.56,56.49-45.56l-67.46-60Z"/><path class="cls-59" d="M180,2326.65c29.62,5,110.55,3.75,158.64-15,170.43-66.4,273.12-135.87,349.77-201.11,24.74-21.06,85.07-83.48,79.69-108.77,0-2.37-45.37-59.83-52.42-74,1.24-1.82,76,67.16,78.41,71,4.71,7.48,4.58,17.09,1.46,28.34-7.2,26-89.65,127.15-233.59,210C410.22,2324.46,274.33,2374.24,196.15,2378c-58.88,2.83-210.35-51.44-259.39-149.71,0,0,15.76,11.39,102.16,53.08C38.92,2281.38,86.4,2310.83,180,2326.65Z"/><path class="cls-64" d="M714.84,1925c28.63,29.85,48.87,63.43,53.1,76.38a1.23,1.23,0,0,1,.11.39c5.38,25.29-55.54,86.61-60.92,91.33-.14.12-88-29.72-48.89-67.84C706.82,1977.86,729.3,1940.24,714.84,1925Z"/><path class="cls-63" d="M312.14,1600.18c-5.1,20.56-11.5,28.17-11.5,28.17s7.45,35.94,11.33,29.15C335.42,1616.48,312.14,1600.18,312.14,1600.18Z"/><path class="cls-59" d="M-110.88,1886.34c180.9-61.85,435.59-209.57,423-286.16C496.52,1725.29,694.39,1867,714.84,1925c3.16,9,8.79,16.62.67,29.56-19.63,31.29-29.68,55.39-91.18,104.29-9.05,7.2,9.26,80.2-8,119.39-30.4,25.05-52.42,43.47-111.23,69.68-54.73-37.8-91.42-58.4-104.54-53.09-64,25.93-69.16,30.07-158.39,52-77.47,19-110.63-5-130.26-29.13-153.46-188.35-335.22-305.82-335.22-305.82S-187.9,1912.68-110.88,1886.34Z"/><path class="cls-65" d="M-1348.25,1458.76c-3.52,18.89,64.29,62.83,103.84,86.68,68-96.06,234.15-22.78,274.09,222.11h0c156.28,92,520.87,313.47,631.45,378.74,32.18-171.15,223.44-100.58,275.63,80.55,0,0,127.7,144.81,262.61,142.32,78.26-1.45,210.85-46.16,362.54-133.49,143.94-82.86,226.39-184,233.59-210,3.12-11.24-1.46-28.33-1.46-28.33,22.3,22.74,1.3,123,.06,124.85-24.62,121.4-261.44,261-443,318.82-96.52,30.75-216.07,64.08-413.56-88.11,0,0-56.89-266.06-191.25-266.06-69.76,0-73.19,102.91-76.62,110.92-.2-.25-.37-.52-.56-.78,0,.3,0,.62,0,.91,0,0-674.93-391.37-674.93-389.81,0,0-32.78-252.29-169.55-253.85-69.75-.8-78.85,69.87-85.7,81.42,0,0-48.11-27.42-65.21-37.3-21.64-12.49-35.7-54.34-36.37-123C-1362.77,1469-1350.82,1460.77-1348.25,1458.76Z"/><path class="cls-54" d="M145,2247.6c18.12,6,39.47,15.51,98.14,1.23,27.36-6.66,92.72-29.92,117.33-37.84,28.63-10.91,16.15,83.14-5.56,94.22-66.71,30.6-165.41,43.94-260.16.35C61,2290,37.83,2208.21,42.32,2181.05,43.84,2171.54,119.71,2233.28,145,2247.6Z"/><path class="cls-66" d="M312,1600.39c55.91,38.14,111.55,76.69,166.39,116.33q41.13,29.74,81.46,60.54c26.81,20.63,53.3,41.7,78.81,63.88,12.74,11.1,25.23,22.49,37.14,34.45,6,6,11.75,12.11,17.23,18.51a156.65,156.65,0,0,1,15,20.15,61.66,61.66,0,0,1,5.47,11.12c1.44,4.07,3.33,7.88,4.24,11.78a18.92,18.92,0,0,1-.88,11.63c-.32,1-.84,1.83-1.24,2.75l-1.55,2.65-3.35,5.39c-4.44,7.23-8.75,14.49-13.36,21.54a241.39,241.39,0,0,1-14.83,20.38c-10.57,13.09-22.69,24.87-35.28,36.06q-9.46,8.39-19.36,16.3c-1.68,1.38-3.2,2.53-5,4.1a8.1,8.1,0,0,0-1.87,3.54,20.71,20.71,0,0,0-.65,3.36,89.25,89.25,0,0,0-.29,12.94c.7,17,2.3,33.8,2.23,50.64a194.13,194.13,0,0,1-1.47,25.09,88,88,0,0,1-6.22,24l.44-.61c-4.05,3.69-8.14,7.31-12.32,10.84-2.12,1.73-4.2,3.5-6.34,5.19s-4.27,3.42-6.48,5c-4.36,3.29-8.79,6.49-13.34,9.51s-9.15,6-13.83,8.77-9.45,5.51-14.26,8.12c-2.39,1.34-4.83,2.57-7.25,3.85s-4.87,2.5-7.31,3.74c-9.8,4.91-19.73,9.56-29.72,14.11l2,.18c-15.15-10.48-30.43-20.79-46.17-30.45-7.88-4.81-15.87-9.48-24.14-13.71s-16.73-8.26-26.39-10a21.93,21.93,0,0,0-7.67,0,12.93,12.93,0,0,0-2,.57l-1.64.65-3.2,1.29-12.79,5.19c-8.53,3.43-17,6.95-25.58,10.3l-12.82,5-12.93,4.64c-8.7,2.84-17.38,5.74-26.22,8.19-17.6,5.14-35.43,9.61-53.26,14.07-17.8,4.61-35.64,8.53-53.79,9.54s-36.45-1.31-52.29-9.78A99.8,99.8,0,0,1,123.6,2226c-6.67-6.14-12.63-13-18.73-19.89-12.15-13.8-24.46-27.56-37.05-41s-25.32-26.75-38.22-39.9-26-26-39.39-38.74-26.77-25.29-40.45-37.61-27.49-24.52-41.51-36.44-28.18-23.71-42.57-35.19-29-22.69-43.78-33.66-29.73-21.71-45.09-31.87l-.27.42c15.17,10.38,29.93,21.37,44.54,32.54s29,22.64,43.19,34.31q42.69,34.92,83.36,72.22Q-32,2069.78-12.28,2089c13.22,12.77,26.15,25.84,39,39s25.44,26.53,37.82,40.11,24.58,27.28,36.64,41.2c11.86,13.92,24.94,28,41.86,36.82a89.16,89.16,0,0,0,26.81,8.93,128.73,128.73,0,0,0,28.05,1.4c18.66-1,36.94-5.09,54.73-9.7s35.72-8.94,53.45-14.13c8.89-2.46,17.67-5.39,26.43-8.31l13-4.74,12.89-5c8.57-3.4,17.05-7,25.57-10.43l12.77-5.23,3.19-1.31c.52-.21,1.1-.47,1.56-.63a8.54,8.54,0,0,1,1.3-.37,17.83,17.83,0,0,1,6.05,0c8.54,1.46,16.95,5.43,25.06,9.44s16.05,8.71,23.89,13.45c15.66,9.53,30.94,19.74,46.09,30.14l1,.66,1.05-.48c10-4.61,20-9.33,29.8-14.31,2.45-1.25,4.92-2.48,7.35-3.78s4.89-2.55,7.3-3.91c4.84-2.65,9.64-5.38,14.37-8.25s9.41-5.8,14-8.93,9.07-6.32,13.48-9.67c2.23-1.63,4.35-3.4,6.53-5.1s4.27-3.52,6.4-5.28c4.21-3.57,8.33-7.25,12.4-11l.29-.26.15-.34a92.14,92.14,0,0,0,6.42-25,197.31,197.31,0,0,0,1.42-25.56c0-17-1.64-33.95-2.38-50.76a86.71,86.71,0,0,1,.22-12.41,19.32,19.32,0,0,1,.54-2.86,5.66,5.66,0,0,1,1-2.06c1.39-1.2,3.22-2.64,4.81-4,6.59-5.33,13.08-10.81,19.41-16.46,12.65-11.31,24.85-23.24,35.51-36.54a243.94,243.94,0,0,0,15-20.68c4.63-7.13,8.94-14.44,13.32-21.64l3.33-5.4,1.64-2.84a33,33,0,0,0,1.37-3,21.76,21.76,0,0,0,1-13.27c-1.05-4.36-3-8.18-4.36-12.07a64.34,64.34,0,0,0-5.75-11.61A160,160,0,0,0,695,1892.4c-5.55-6.44-11.41-12.58-17.41-18.58-12-12-24.6-23.34-37.42-34.42-25.66-22.11-52.27-43.08-79.19-63.6s-54.25-40.5-81.76-60.21c-55-39.41-110.85-77.72-166.93-115.61Z"/><path class="cls-67" d="M312.14,1600.18l5.33,5.26,15.07,14.8,10.81,10.51,12.41,12.66q6.63,6.77,14.1,14.36c5,5,10,10.58,15.33,16.23s10.89,11.54,16.52,17.75l17.22,19.39c6,6.56,11.79,13.65,17.78,20.81S449,1746.3,454.86,1754l9.08,11.49c3,3.88,6.19,7.7,9.09,11.76L491,1801.59c5.78,8.36,11.7,16.72,17.46,25.23,5.52,8.67,11.25,17.26,16.65,26,10.77,17.59,21.19,35.41,30.35,53.5l6.88,13.51q3.23,6.81,6.41,13.55c4.39,8.92,8,18,11.88,26.9,7.14,17.93,13.77,35.41,18.8,52.4,2.76,8.42,4.73,16.8,7,24.83,1.88,8.1,3.94,15.91,5.32,23.52a417,417,0,0,1,6.36,41.75c1.26,12.52,1.78,23.52,1.77,32.57s-.28,16.2-.76,21-.86,7.42-.86,7.42.67-2.52,1.54-7.33a195.58,195.58,0,0,0,2.56-21c.39-4.56.53-9.61.74-15.13,0-5.51.08-11.49-.22-17.86-.14-6.38-.74-13.14-1.26-20.29-.75-7.11-1.55-14.61-2.81-22.37-1-7.8-2.72-15.81-4.23-24.16-1.92-8.26-3.7-16.86-6.19-25.52a514.26,514.26,0,0,0-17.54-53.9c-3.72-9.09-7.24-18.47-11.51-27.64l-6.24-13.93q-3.42-6.87-6.89-13.79c-9.21-18.48-19.64-36.67-30.48-54.59-5.55-8.89-11.42-17.56-17.08-26.32-5.91-8.59-12-17-17.88-25.45-6.08-8.32-12.39-16.35-18.53-24.35-3-4-6.29-7.85-9.44-11.7l-9.43-11.43c-6.14-7.63-12.6-14.78-18.88-21.8s-12.36-14-18.65-20.35L407.74,1686c-5.95-6-11.87-11.57-17.47-17l-8.23-8c-2.68-2.61-5.29-5.16-8-7.51L359,1639.94c-4.73-4.24-9.12-8.25-13.25-11.86l-11.56-9.67-16.28-13.47Z"/><path class="cls-68" d="M-211.46,1916.93l30.85,14c19.66,8.8,47.78,21.3,81.66,36,16.94,7.35,35.28,15.32,54.75,23.59l29.93,12.78c10.21,4.36,20.54,9,31.1,13.65,21.12,9.26,42.86,19,65.09,28.58l67.32,29.19c22.48,9.94,44.84,20.17,66.92,30.08s43.89,19.49,64.89,29c20.8,9.91,41,19.29,60.15,28.22l27.91,13c9,4.26,17.51,8.63,25.79,12.7l23.7,11.73,11,5.39c3.59,1.74,7.07,3.43,10.34,5.24l34.26,18.21c9.35,5.29,16.61,9.61,21.62,12.48,2.52,1.43,4.29,2.75,5.56,3.53l1.89,1.24-1.79-1.38c-1.2-.87-2.89-2.34-5.28-4-4.79-3.21-11.66-8.2-20.73-14l-33.22-20.26c-13-7.61-27.89-15.62-44.08-24.55-8.13-4.42-16.52-9.16-25.34-13.8l-27.54-13.89c-18.92-9.52-38.86-19.59-59.59-29.81-10.42-5-21.09-9.85-31.86-14.89s-21.68-10.08-32.71-15.11c-22.07-10.06-44.4-20.46-66.88-30.53L86.66,2034.4c-22.29-9.56-44.34-18.66-65.62-27.63-10.67-4.41-21.06-9-31.42-13l-30.29-11.89c-19.68-7.77-38.34-15-55.57-21.6-34.43-13.31-63.24-24.14-83.44-31.66Z"/><path d="M-224.67,1910.54l-.17-.28c-55.61-106.84-158-315.8-147.34-341.91a5.92,5.92,0,0,1,3.65-3.62c142.1-46.63,261.55-102,382.69-220.94a5.13,5.13,0,0,1,3.71-1.35c27.29,0,221.24,186.74,284.29,273.71,3.12,4.31,4,9.63,2.68,15.8-7.42,34-85.76,96.81-204.44,163.85-96.43,54.47-265.57,119-312,119C-218.41,1914.75-222.68,1913.37-224.67,1910.54ZM17.58,1347.43c-121.79,119.51-241.82,175.21-384.55,222-.08,0-.32.11-.58.75-8.17,20,69.65,188.83,147.05,337.54.55.67,2.46,2,8.87,2,44.92,0,215.62-65.23,309.57-118.3,115.7-65.36,195-128.38,202-160.56,1-4.79.44-8.65-1.85-11.81-65.64-90.56-256.7-271.64-280.24-271.64C17.69,1347.44,17.58,1347.45,17.58,1347.43Z"/><path class="cls-69" d="M155.56,2251.11c2.34.73,4.82,1.44,7.46,2.09,1.65,20.42,2.74,41,4.95,61.37,71.91,10.66,132.43-2,173.07-23.59,11.5-6.93,7.38-47.2-3.64-72.28,9.26-3.14,17.3-5.85,23.08-7.71,28.63-10.91,16.15,83.14-5.56,94.22-50.37,23.11-119,36.35-190.34,22.7v-.06c-1.43-.27-2.86-.51-4.29-.8C161.77,2301.92,159.05,2276.27,155.56,2251.11Z"/><path class="cls-70" d="M131.69,2241.4c14.73,10.69,18.71,30,19.79,44.94a433.71,433.71,0,0,1-55-16.38c-15.11-5.63-28.5-20-39.16-37.24-6.81-17.76-11.38-36.51-13-51.24C58.8,2187.21,105.23,2223.62,131.69,2241.4Z"/><path class="cls-71" d="M42.32,2181.05c1.52-9.51,77.39,52.23,102.69,66.55,3.75,1.25,7.65,2.64,12,3.94,3.85,17.52,4.69,36,5.85,53.67.5,7.51.77,15,.89,22.53a302.56,302.56,0,0,1-69-22.18C61,2290,37.83,2208.21,42.32,2181.05Z"/><path class="cls-72" d="M110.27,2288.81C95.43,2268.56,82,2247.5,68.94,2226c-9-14.9-19.24-29.67-25.56-45.95,9.35-1.34,77.84,54,101.63,67.51l3.59,1.21a261.58,261.58,0,0,0,23.78,80.48,303.94,303.94,0,0,1-36.57-8.37Q122.4,2305.37,110.27,2288.81Zm266.85-47.54c.55-19.7-4.1-35.06-16.64-30.28-6.64,2.14-16.24,5.39-27.25,9.13C347.59,2227.71,362.25,2234.72,377.12,2241.27ZM216.84,2254.1a777.9,777.9,0,0,0,72.4,45.79q16.54,9.32,33.48,17.82a298,298,0,0,0,32.2-12.5c8.23-4.2,15.14-20.35,19-38.17a679.05,679.05,0,0,1-72.71-36.1c-22.29,7.44-44.69,14.64-58,17.89C233.39,2251.21,224.69,2252.91,216.84,2254.1Z"/><path class="cls-66" d="M354.92,2305.21c-5.16,2-10.24,4.3-15.46,6.16s-10.38,3.86-15.73,5.35-10.57,3.28-16,4.53l-8.05,2-8.13,1.66-8.13,1.63-8.19,1.25c-2.74.41-5.46.91-8.2,1.24l-8.24.87c-2.75.27-5.48.66-8.24.82l-8.27.46c-2.76.12-5.51.37-8.27.39l-8.28,0c-2.76,0-5.52.07-8.27,0l-8.27-.43-8.26-.43-8.22-.88-8.22-.88c-2.73-.38-5.44-.89-8.16-1.3l-8.16-1.3c-2.73-.38-5.39-1.13-8.09-1.68a302.15,302.15,0,0,1-31.89-8.54c-5.19-1.86-10.41-3.62-15.56-5.55l-15.2-6.46c-9.85-4.07-17.08-12.41-23.18-21.34a165.64,165.64,0,0,1-15.08-29A230.43,230.43,0,0,1,49,2222.51c-2.61-10.65-4.62-21.53-4.94-32.34a53.54,53.54,0,0,1,.39-8l.06-.48,0-.24c.08-.35-.1.33-.07.21l0-.12a1.64,1.64,0,0,0,.07-.21,1,1,0,0,1-.27.53c-.28.28-.33.3-.5.35s.26,0,.75.17A19.42,19.42,0,0,1,48,2183.8a140.31,140.31,0,0,1,14,8.38c9.19,6.08,18.2,12.55,27.26,18.94l27.13,19.3c9.12,6.35,18.14,12.81,27.9,18.41l.12.07.13,0c3.95,1.3,7.9,2.61,11.95,3.77l3,.89,3.08.69c2.06.44,4.11.94,6.17,1.31l6.27.78a43.83,43.83,0,0,0,6.27.52l6.28.16,3.14.08c1.05,0,2.09-.13,3.14-.18l6.25-.43c2.09-.17,4.18-.23,6.25-.49l12.37-1.9a60.87,60.87,0,0,0,6.15-1.09l6.09-1.41,12.17-2.82-12.26,2.35-6.13,1.17c-2,.45-4.1.63-6.16.91l-12.36,1.53c-2.06.2-4.14.2-6.21.31l-6.2.25c-1,0-2.07.11-3.11.09l-3.09-.17-6.19-.33a40.92,40.92,0,0,1-6.14-.69l-6.1-.93c-2-.42-4-1-6-1.45l-3-.73-2.95-.93c-3.93-1.2-7.86-2.57-11.8-3.95l.25.11c-9.39-5.61-18.34-12.24-27.31-18.72l-26.77-19.77c-8.93-6.6-17.94-13.11-27.21-19.31a142.65,142.65,0,0,0-14.48-8.75,23.28,23.28,0,0,0-4.28-1.7,5.73,5.73,0,0,0-3.35-.07,3.85,3.85,0,0,0-.67.34,2.34,2.34,0,0,0-.69.57,3.71,3.71,0,0,0-.59.94l-.1.28,0,.13s-.17.72-.11.47l0,.27-.07.55a57.53,57.53,0,0,0-.48,8.65c.27,11.4,2.28,22.48,4.88,33.38a236.41,236.41,0,0,0,10.25,32,156,156,0,0,0,15.58,29.93,84.34,84.34,0,0,0,10.9,13.18,56,56,0,0,0,6.74,5.55,37.44,37.44,0,0,0,3.77,2.3l1.85,1c.84.4,1.34.57,2,.87l15.47,6.48c5.25,1.93,10.55,3.69,15.83,5.54a306.91,306.91,0,0,0,32.41,8.49c2.74.54,5.44,1.28,8.21,1.65l8.28,1.27c2.76.41,5.52.86,8.29,1.2l8.34.75,8.34.74,8.37.3,8.36.28c2.79,0,5.58-.08,8.37-.11l8.36-.17c2.79-.07,5.56-.37,8.35-.54l8.33-.61c2.78-.21,5.54-.65,8.3-1l8.3-1c2.75-.38,5.49-.94,8.24-1.39l8.22-1.48L292,2327l8.12-1.91,8-2.27c5.38-1.41,10.64-3.22,15.91-5s10.43-3.86,15.61-5.85S349.84,2307.44,354.92,2305.21Z"/><path class="cls-54" d="M661.5,2026.85c14.65-13.71,52.58-60.45,58.4-79.63,9.59,22.76,16.52,43.06,20.78,56.56-10.12,26.2-39.3,62.13-54.51,79.58C663.31,2071.51,627.15,2059,661.5,2026.85Z"/><path class="cls-66" d="M718.92,1934.7a34.3,34.3,0,0,1-1,10.68,89.14,89.14,0,0,1-7.87,19.93c-6.6,12.7-15,24.32-24,35.4q-6.76,8.3-14.06,16.14c-4.83,5.22-9.89,10.34-15,15.27-4.83,4.69-8.89,10.57-8.83,16.88s4,12.12,8.92,16.67a80.88,80.88,0,0,0,17,11.64,167.66,167.66,0,0,0,19.15,8.55q4.92,1.86,9.91,3.5l2.5.79,1.23.37.31.08.14,0,.08,0-.16,0a1.78,1.78,0,0,0-.83.09c-.43.24,1.08-.52-1,.54l.06-.05.22-.19c1.23-1.14,2.51-2.39,3.75-3.62,5-5,9.86-10.1,14.61-15.33a341,341,0,0,0,26.66-32.81,148.84,148.84,0,0,0,10.88-17.9,56.7,56.7,0,0,0,3.82-9.54,21.39,21.39,0,0,0,.84-9.68l0-.36a1.07,1.07,0,0,0,.05.35l-.05-.18-.12-.32L766,2001l-.47-1.32c-.34-.89-.73-1.77-1.09-2.65-.77-1.76-1.57-3.51-2.44-5.24-1.72-3.47-3.6-6.87-5.55-10.23s-4-6.69-6.1-10c-1-1.65-2.13-3.25-3.18-4.9s-2.17-3.24-3.26-4.85c-2.19-3.24-4.47-6.41-6.78-9.55s-4.7-6.24-7.11-9.32-4.9-6.09-7.44-9.06-5.11-5.92-7.7-8.86A15.23,15.23,0,0,1,718.92,1934.7Zm4.11-1.27c2.72,2.83,5.26,5.81,7.86,8.75s5.07,6,7.51,9,4.88,6.16,7.21,9.32,4.66,6.32,6.86,9.58,4.35,6.55,6.41,9.91,4.06,6.76,5.9,10.26c.94,1.74,1.82,3.53,2.66,5.34.4.91.83,1.81,1.21,2.75l.55,1.42.27.72.14.36.06.18a3.42,3.42,0,0,1,.11.71l0-.36a24.79,24.79,0,0,1-.63,11.37,59.68,59.68,0,0,1-3.81,10.31,130.93,130.93,0,0,1-10.94,18.62,346,346,0,0,1-26.74,33.49c-4.76,5.32-9.62,10.54-14.65,15.63-1.27,1.27-2.51,2.52-3.88,3.8l-.27.25-.07.06c-2.07,1.09-.62.29-1.11.53a3.41,3.41,0,0,1-1.15,0l-.58-.15-.34-.09-1.32-.38-2.58-.8c-3.44-1.08-6.82-2.28-10.17-3.59a171.82,171.82,0,0,1-19.64-9A85.86,85.86,0,0,1,654,2069a38.43,38.43,0,0,1-7.08-8.78,22.1,22.1,0,0,1-3.09-11.25,22.64,22.64,0,0,1,3.24-11.17,40.83,40.83,0,0,1,7.05-8.72c5.22-4.86,10.27-9.72,15.21-14.8s9.7-10.26,14.3-15.63,9-10.88,13.16-16.58a196.61,196.61,0,0,0,11.62-17.69,87.19,87.19,0,0,0,8.51-19.27,35.54,35.54,0,0,0,1.48-10.38,14.94,14.94,0,0,0-3.51-9.73C717.59,1927.8,720.37,1930.55,723,1933.43Z"/><path class="cls-72" d="M718.44,1943.16c17.29,19.71,33.68,40.21,49.89,60.87.6,9.53-6.48,23.15-16.05,36.9-16.57-3.21-33.08-6.7-49.49-10.61-13.24-3.15-26.62-6.1-39.72-9.82C695,1988.64,714.58,1961.53,718.44,1943.16Z"/><path class="cls-73" d="M486.19,2308s118-56.81,183.66-114c11.92-10.38,24.88-1,25.57,16.32l.88,22c-62.12,53.75-147.21,104.18-232.36,142.74l-.82-20.59C462.43,2337.12,472.76,2316.3,486.19,2308Z"/><path class="cls-74" d="M677.36,2224.52c10.21,3.58,18.9,6.89,18.94,7.8-61.87,52.86-148.47,104.75-232.36,142.74l-.75-18.85C540.41,2320.21,618.88,2273,677.36,2224.52Z"/><path class="cls-74" d="M284.88,2421.59c23.32,18.32,125.75-18.75,125.75-31.84v-22.11c0-13.09-10.94-20.15-24.44-15.78C289.64,2383.16,284.88,2421.59,284.88,2421.59Z"/><path class="cls-73" d="M285.49,2419.17c2.85-8.87,18.51-40.67,100.7-67.31a25.31,25.31,0,0,1,7.69-1.28,18.17,18.17,0,0,1,2.7,9.92v22.12C396.58,2393.8,321.81,2422.49,285.49,2419.17Z"/><path class="cls-74" d="M783.63,2114.69c-6,33-56,99.89-58.21,87.2L721.56,2180c-2.34-13.29,2.62-32.11,10.65-41.27C777.89,2086.53,783.63,2114.69,783.63,2114.69Z"/><path class="cls-62" d="M386.19,2351.86a27.48,27.48,0,0,1,4.62-1.05l6.61,6.49a9.73,9.73,0,0,1,.86.84h0a14.42,14.42,0,0,1,3.39,8.35c1.17,11.47-7.06,26.09-18.4,32.65-8.48,4.91-16.28,3.91-20.17-1.7h0l-10.7-10.55c-2.59-2-4.31-5.29-4.76-9.63a27.48,27.48,0,0,1,1.42-11.17A349.63,349.63,0,0,1,386.19,2351.86Z"/><path class="cls-75" d="M372.83,2399.81A18.89,18.89,0,0,0,382,2397c10.54-6.11,18.24-19.67,17.16-30.24-.64-6.23-4.18-9.81-9.71-9.81a18.8,18.8,0,0,0-9.2,2.83c-10.55,6.1-18.25,19.66-17.16,30.23C363.76,2396.23,367.3,2399.81,372.83,2399.81Z"/><path class="cls-61" d="M375.87,2390.51a35.47,35.47,0,0,1-11.36,4.37,13.44,13.44,0,0,1-1.39-4.88c-1.09-10.57,6.61-24.13,17.16-30.23a18.8,18.8,0,0,1,9.2-2.83c5.3,0,8.75,3.32,9.59,9.09C393.28,2375.88,385.76,2384.83,375.87,2390.51Z"/><path class="cls-73" d="M767.54,2108.57a10.64,10.64,0,0,1,.69,2c-4.16,22.69-29.06,61.39-44.94,79.24l-1.73-9.82c-2.34-13.29,2.62-32.11,10.65-41.27C748.62,2120,759.85,2111.61,767.54,2108.57Z"/><path class="cls-62" d="M723.24,2189.49l-1.68-9.54c-2.34-13.29,2.62-32.11,10.65-41.27,1.32-1.51,2.6-2.94,3.86-4.31l11.49,10.17a9.92,9.92,0,0,1,.87.85h0a14.42,14.42,0,0,1,3.39,8.35c1.18,11.47-7.06,26.09-18.39,32.65A21.16,21.16,0,0,1,723.24,2189.49Z"/><path class="cls-75" d="M730.42,2147a18.78,18.78,0,0,1,9.2-2.82c5.54,0,9.08,3.57,9.72,9.81,1.08,10.56-6.62,24.13-17.16,30.23a18.84,18.84,0,0,1-9.2,2.82h-.18l-1.24-7.09c-1.55-8.78.1-19.94,3.71-29.17A32,32,0,0,1,730.42,2147Z"/><path class="cls-61" d="M721.56,2180c-1.55-8.78.1-19.94,3.71-29.17a32,32,0,0,1,5.15-3.77,18.78,18.78,0,0,1,9.2-2.82c5.31,0,8.76,3.32,9.59,9.09-5.78,9.84-13.3,18.8-23.19,24.47a41.83,41.83,0,0,1-4.46,2.21Z"/><path class="cls-67" d="M-399.35,1094.19s2,.58,5.69,1.83c1.85.59,4.1,1.45,6.75,2.41s5.7,2.06,9.08,3.39c6.81,2.51,14.92,6,24.27,9.75l14.74,6.46c5.2,2.23,10.61,4.72,16.23,7.35,11.33,5.09,23.35,11.14,36.15,17.33,6.43,3,12.83,6.59,19.48,10s13.49,6.76,20.28,10.53c13.61,7.47,27.79,14.92,41.9,23.08l21.41,12.13c7.19,4,14.2,8.45,21.32,12.67l21.36,12.6c7.07,4.25,14,8.69,20.92,13s13.79,8.59,20.62,12.74,13.39,8.56,19.94,12.73,12.91,8.41,19.25,12.39,12.57,7.83,18.43,11.87c11.82,8,23.08,15.38,33.49,22.21l14.92,9.83,13.32,9.08L42,1342.18c6,4.07,10.85,7.16,14.1,9.31l5,3.28-4.6-3.82c-3-2.48-7.37-6.18-13-10.76L23,1323.67l-12.61-10.11c-4.48-3.51-9.32-7-14.29-10.79-10-7.49-20.81-15.6-32.36-24s-24-16.92-36.91-25.76-26.34-17.75-40.21-26.5c-6.93-4.37-13.85-8.9-20.93-13.24l-21.4-12.86c-7.21-4.18-14.3-8.56-21.58-12.57l-21.67-12-10.72-5.93c-3.58-1.93-7.22-3.71-10.8-5.56l-21.21-10.81c-3.47-1.81-7-3.48-10.44-5.12l-10.33-4.85c-6.85-3.12-13.43-6.42-20.05-9.18l-19.18-8.28c-6.19-2.67-12.33-4.9-18.13-7.23-11.58-4.72-22.5-8.31-32.08-11.68-9.67-3.14-18.13-5.77-25.18-7.65-3.5-1-6.65-1.83-9.42-2.47s-5.09-1.25-7-1.62C-397.31,1094.54-399.35,1094.19-399.35,1094.19Z"/><path class="cls-67" d="M36.29,2173,21.77,2162.3c-9.46-7-23.37-17.23-41.23-30l-29.61-21.15q-16.17-11.53-35-24.74c-25-17.64-53.32-37.4-84.4-58.67L-217,1994.55l-52-35.31c-35.73-24.19-73.49-49.6-112.76-75.56s-79.88-52.75-121.23-79.83-83.45-54.46-125.64-81.7S-713.22,1668-755,1641.57s-82.95-52.34-122.9-77.25-78.71-48.76-115.62-71.12-71.9-43.36-104.29-62.59c-16.26-9.51-31.77-18.74-46.65-27.29s-29-16.7-42.37-24.13l-19.37-10.87-18.12-9.92c-11.59-6.42-22.37-12.05-32.1-17.16s-18.57-9.39-26.19-13.23c-3.8-1.94-7.42-3.52-10.72-5l-9-4.06c-2.65-1.28-5.11-2.14-7.21-3l-5.28-2-4.3-1.64,4.27,1.74,5.23,2.13c2.07.85,4.5,1.77,7.12,3.1l8.88,4.26c3.25,1.57,6.83,3.23,10.58,5.26l12.17,6.36c4.36,2.21,8.93,4.69,13.73,7.35,9.64,5.27,20.31,11.07,31.78,17.68l17.94,10.21,19.17,11.19c26.42,15.42,56,33.23,88.24,52.62,32.18,19.55,67,40.83,103.6,63.63L-940,1533l58.73,36.81c39.85,25,80.93,51.07,122.6,77.65s83.9,53.7,126.05,81c42.27,27.08,84.42,54.35,125.87,81.25s82.15,53.54,121.47,79.4L-272,1963.77l52.36,34.76,48.81,32.66,85.19,57.48q19,12.85,35.39,24.15l30,20.65,24.09,16.71,17.74,12.45Z"/><path class="cls-67" d="M-63.24,2226.84s2.66,3.09,7.89,8.65,13.06,13.6,23.48,23.34S-8.42,2280,7.2,2292.34A472,472,0,0,0,62.41,2330a358,358,0,0,0,34,17.53,296.44,296.44,0,0,0,38.4,14.36,239.24,239.24,0,0,0,42.55,8.43c3.7.26,7.41.75,11.16.82s7.47.16,11.39.17c7.49-.41,15-.56,22.73-1.57,15.4-1.45,30.68-4.45,46.15-7.68,7.65-1.9,15.42-3.57,23.11-5.7l11.55-3.2,5.8-1.61,5.75-1.79a964.92,964.92,0,0,0,91.55-33.4c30.09-12.68,59.56-26.79,88.12-41.48,7.15-3.65,14.27-7.3,21.25-11.14s14-7.49,20.88-11.3c13.68-7.76,27.32-15.31,40.4-23.2s25.81-16,38-24.3,23.87-16.72,35.09-25.15c22.38-16.93,42.75-34,60.74-50.58a605.91,605.91,0,0,0,46.76-47.69c13.05-15,23.62-28.83,31-41.07,3.62-6.11,6.78-11.88,7.48-17.49a50.64,50.64,0,0,0-.08-14.08c-.45-3.8-1.08-6.67-1.49-8.6s-.71-2.9-.71-2.9.24,1,.65,2.91.92,4.82,1.28,8.62a50.67,50.67,0,0,1-.23,13.93c-.82,5.47-4,11.08-7.73,17.11-7.58,12-18.34,25.62-31.61,40.33a664.92,664.92,0,0,1-47.25,46.86c-18.1,16.35-38.56,33.11-61,49.73s-47,32.95-73.12,48.64c-13.11,7.85-26.67,15.29-40.37,23-6.88,3.78-13.88,7.44-20.86,11.2s-14.08,7.41-21.23,11c-28.52,14.56-57.93,28.5-87.94,41a956.54,956.54,0,0,1-91,33.54l-5.72,1.81-5.75,1.61-11.46,3.23c-7.63,2.13-15.32,3.82-22.91,5.74-15.29,3.24-30.53,6.27-45.56,7.74-7.45,1-15.07,1.2-22.56,1.63l-11-.11c-3.67,0-7.31-.48-10.94-.69a235.3,235.3,0,0,1-41.93-7.86,291.39,291.39,0,0,1-38.1-13.8,355.08,355.08,0,0,1-33.91-17,507.17,507.17,0,0,1-55.48-36.64c-15.77-12-29-23.19-39.53-32.76s-18.6-17.37-23.94-22.82S-63.24,2226.84-63.24,2226.84Z"/><path class="cls-67" d="M696.3,2232.32l-9.74,6.66-11.07,7.76c-2.16,1.47-4.35,3.19-6.84,4.72s-4.76,3.59-7.36,5.44l-16.55,12.27-19,13L615.67,2289l-10.54,6.67c-7.12,4.44-14.23,9.17-21.57,13.5l-21.93,12.91c-3.6,2.17-7.24,4.19-10.86,6.15l-10.68,5.85c-7,3.8-13.73,7.67-20.31,10.9l-18.41,9.37c-2.82,1.51-5.64,2.71-8.17,4.17l-7.24,4.06-11.78,6.6c-6.53,3.67-10.24,5.85-10.24,5.85s4-1.46,11-4.16l12.61-4.91,7.77-3c2.75-1,5.35-2.73,8.26-4.11l18.48-9.41c6.61-3.25,13.34-7.13,20.4-11l10.72-5.87c3.64-2,7.3-4,10.91-6.17l22-13c7.37-4.36,14.52-9.11,21.67-13.57l10.59-6.7,10.12-6.88,19.11-13.09,16.71-12.39c2.55-2,5.18-3.62,7.42-5.52s4.22-3.84,6.16-5.59c3.81-3.57,7.12-6.69,9.86-9.25Z"/><path class="cls-67" d="M6.7,1336.48l-14.29,12c-4.61,3.74-10.07,8.41-16.57,13.5s-13.79,10.88-21.87,17c-4,3.11-8.22,6.3-12.67,9.49l-13.64,10c-9.51,6.69-19.5,13.77-30.06,20.77-10.41,7.22-21.63,14-32.79,21.22-11.39,6.87-22.84,14-34.67,20.57-11.62,6.89-23.57,13.19-35.28,19.5-2.92,1.6-5.85,3.14-8.81,4.58l-8.77,4.46c-5.82,2.93-11.52,5.94-17.23,8.69l-16.88,8c-5.51,2.61-10.85,5.28-16.2,7.54l-15.5,6.84c-5,2.21-9.78,4.49-14.5,6.34-9.41,3.82-18,7.43-25.6,10.64s-14.41,5.57-19.93,7.74-9.87,3.85-12.84,5l-4.54,1.79,4.67-1.41c3-.93,7.52-2.22,13.18-4s12.59-3.82,20.43-6.49,16.63-5.79,26.22-9.26,19.78-7.72,30.63-12c5.45-2.11,10.91-4.61,16.54-7.06l17.15-7.64c5.8-2.65,11.59-5.57,17.51-8.4s12-5.64,17.82-8.87c11.83-6.28,23.91-12.55,35.66-19.43,11.87-6.65,23.37-14,34.79-20.94,5.66-3.59,11.16-7.31,16.64-10.93s10.82-7.29,16-11C-88.15,1417.5-78.36,1410-69,1403c9.2-7.21,17.92-14,25.66-20.63,3.88-3.31,7.68-6.38,11.16-9.46l9.83-8.79c6.19-5.5,11.38-10.53,15.75-14.54s7.57-7.42,9.85-9.64Z"/><polygon class="cls-76" points="540.24 2349.95 678.66 2264.6 672.17 2215.48 533.76 2300.83 540.24 2349.95"/><path class="cls-51" d="M-427.92,1097.83c-71.46-10.22-163.78-13-208.32-13-9.56,0-16.92.14-19.67.38-127.32,11.06-405.05,176.26-457.51,257.85-.23.36-.47.86-.36,1,.34.64,3.25,3.8,26.51,3.8,49.14,0,150.25-13.8,217.16-22.93,30.94-4.22,53.64-7.32,62-7.82C-796.89,1306.48-650,1170.28-427.92,1097.83Zm-599.23,328.37c-3,3.11-4.33,6.12-4.19,9.2.65,13.39,68.75,56.14,233.28,159.4,116.41,73.07,275.19,172.73,501.15,318.56-3.16-8.14-8-21.43-15.9-43.32-32.22-89.35-99.27-275.27-148.51-320.15-55.22-50.34-248.23-156.68-333.63-168.72a31.78,31.78,0,0,0-3.87-.14C-836.82,1381-997.46,1395-1027.15,1426.2ZM17.58,1347.43c-121.79,119.51-241.82,175.21-384.55,222-.08,0-.32.11-.58.75-8.17,20,69.65,188.83,147.05,337.54.55.67,2.46,2,8.87,2,44.92,0,215.62-65.23,309.57-118.3,115.7-65.36,195-128.38,202-160.56,1-4.79.44-8.65-1.85-11.81-65.64-90.56-256.7-271.64-280.24-271.64C17.69,1347.44,17.58,1347.45,17.58,1347.43Z"/><path class="cls-52" d="M-348.07,1563.07c93.44-31.72,177.48-68.44,259-126.19,89.43,25.5,179.15,49,272.51,53.15,29.93,30.25,59.08,61.36,82.69,89C60.42,1692.81-292,1602.87-348.07,1563.07Z"/><polygon class="cls-77" points="2322.97 1628.79 2322.97 1788.84 2400.58 1833.65 2400.58 1673.59 2322.97 1628.79"/><polygon class="cls-9" points="3045.98 1211.31 2322.97 1628.79 2400.58 1673.59 3123.59 1256.11 3045.98 1211.31"/><path class="cls-78" d="M2764.71,588.85v841.54L3095,1239.68V398.14L3034.75,433Zm12.83,7.42L3020.29,456l45.63-26.27,8.17-4.78,8.17-4.65v812.12l-304.72,175.87Z"/><polygon class="cls-79" points="2748.36 579.4 2748.36 1420.92 2764.7 1430.35 2764.7 588.83 2748.36 579.4"/><polygon class="cls-79" points="3065.89 429.68 3065.89 1222.88 3082.22 1232.31 3082.22 420.25 3065.89 429.68"/><polygon class="cls-80" points="3078.66 388.71 2748.36 579.4 2764.7 588.83 3094.99 398.14 3078.66 388.71"/><polygon class="cls-80" points="3065.89 1222.88 2777.47 1389.39 2777.47 1408.25 3082.22 1232.31 3065.89 1222.88"/><polygon class="cls-81" points="3074.07 424.98 3074.07 1227.81 2777.49 1398.98 2777.49 596.22 3074.07 424.98"/><path class="cls-78" d="M2372,815.51v841.66l138-79.7,254.69-147.08V588.85l-16.34,9.43L2410.83,793.13Zm12.82,7.42,26-15.09L2735.55,620.4l8.29-4.77,4.53-2.52V613l3.52-1.89V611h.13v812.12l-255.2,147.22-112,64.61Z"/><polygon class="cls-79" points="2355.68 806.14 2355.68 1647.66 2372.01 1657.08 2372.01 815.56 2355.68 806.14"/><polygon class="cls-79" points="2735.6 620.38 2735.6 1413.59 2751.93 1423.01 2751.93 610.95 2735.6 620.38"/><polygon class="cls-80" points="2748.37 579.42 2355.68 806.14 2372.01 815.56 2764.7 588.85 2748.37 579.42"/><polygon class="cls-80" points="2735.6 1413.59 2384.79 1616.13 2384.79 1634.98 2751.93 1423.01 2735.6 1413.59"/><polygon class="cls-82" points="2743.79 615.68 2743.79 1418.51 2384.8 1625.72 2384.8 822.95 2743.79 615.68"/><polygon class="cls-77" points="1600.02 2046.19 1600.02 2206.25 1677.64 2251.06 1677.64 2091 1600.02 2046.19"/><polygon class="cls-9" points="2323.03 1628.71 1600.02 2046.19 1677.64 2091 2400.65 1673.52 2323.03 1628.71"/><path class="cls-78" d="M2041.77,1006.26v841.53L2372,1657.09V815.55l-60.22,34.82Zm12.82,7.41,242.76-140.29L2343,847.1l8.17-4.77,8.17-4.66v812.12l-304.73,175.88Z"/><polygon class="cls-79" points="2025.42 996.81 2025.42 1838.33 2041.75 1847.76 2041.75 1006.24 2025.42 996.81"/><polygon class="cls-79" points="2342.95 847.08 2342.95 1640.29 2359.28 1649.71 2359.28 837.65 2342.95 847.08"/><polygon class="cls-80" points="2355.71 806.12 2025.42 996.81 2041.75 1006.24 2372.05 815.55 2355.71 806.12"/><polygon class="cls-80" points="2342.95 1640.29 2054.53 1806.8 2054.53 1825.65 2359.28 1649.71 2342.95 1640.29"/><polygon class="cls-83" points="2351.13 842.38 2351.13 1645.21 2054.54 1816.39 2054.54 1013.62 2351.13 842.38"/><path class="cls-78" d="M1649,1232.92v841.66l138-79.7,254.7-147.09V1006.26l-16.34,9.43-337.54,194.85Zm12.82,7.42,26-15.09,324.72-187.44,8.29-4.78,4.53-2.51v-.13l3.52-1.88v-.13h.12V1840.5l-255.2,147.21-112,64.62Z"/><polygon class="cls-79" points="1632.74 1223.54 1632.74 2065.06 1649.07 2074.49 1649.07 1232.97 1632.74 1223.54"/><polygon class="cls-79" points="2012.66 1037.79 2012.66 1830.99 2028.99 1840.42 2028.99 1028.36 2012.66 1037.79"/><polygon class="cls-80" points="2025.42 996.83 1632.74 1223.54 1649.07 1232.97 2041.76 1006.25 2025.42 996.83"/><polygon class="cls-80" points="2012.66 1830.99 1661.85 2033.54 1661.85 2052.39 2028.99 1840.42 2012.66 1830.99"/><polygon class="cls-84" points="2020.84 1033.09 2020.84 1835.92 1661.86 2043.12 1661.86 1240.36 2020.84 1033.09"/><polygon class="cls-77" points="877.08 2463.6 877.08 2623.66 954.7 2668.46 954.7 2508.41 877.08 2463.6"/><polygon class="cls-9" points="1600.09 2046.12 877.08 2463.6 954.7 2508.41 1677.7 2090.92 1600.09 2046.12"/><path class="cls-78" d="M1318.83,1423.66V2265.2l330.25-190.71V1233l-60.22,34.82Zm12.82,7.42,242.75-140.29,45.64-26.28,8.17-4.78,8.17-4.65V2067.2l-304.73,175.87Z"/><polygon class="cls-79" points="1302.48 1414.22 1302.48 2255.74 1318.81 2265.16 1318.81 1423.65 1302.48 1414.22"/><polygon class="cls-79" points="1620 1264.49 1620 2057.69 1636.34 2067.12 1636.34 1255.06 1620 1264.49"/><polygon class="cls-80" points="1632.77 1223.53 1302.48 1414.22 1318.81 1423.65 1649.1 1232.96 1632.77 1223.53"/><polygon class="cls-80" points="1620 2057.69 1331.58 2224.21 1331.58 2243.06 1636.34 2067.12 1620 2057.69"/><polygon class="cls-85" points="1628.19 1259.79 1628.19 2062.62 1331.6 2233.8 1331.6 1431.03 1628.19 1259.79"/><path class="cls-78" d="M926.1,1650.33V2492l138-79.71,254.7-147.08V1423.66l-16.35,9.43L965,1628Zm12.82,7.41,26-15.08,324.71-187.44,8.3-4.78,4.52-2.51v-.13l3.52-1.88v-.13h.13v812.12l-255.2,147.21-112,64.62Z"/><polygon class="cls-79" points="909.8 1640.95 909.8 2482.47 926.13 2491.9 926.13 1650.38 909.8 1640.95"/><polygon class="cls-79" points="1289.71 1455.19 1289.71 2248.4 1306.05 2257.83 1306.05 1445.77 1289.71 1455.19"/><polygon class="cls-80" points="1302.48 1414.23 909.8 1640.95 926.13 1650.38 1318.82 1423.66 1302.48 1414.23"/><polygon class="cls-80" points="1289.71 2248.4 938.9 2450.94 938.9 2469.8 1306.05 2257.83 1289.71 2248.4"/><polygon class="cls-86" points="1297.9 1450.5 1297.9 2253.33 938.92 2460.53 938.92 1657.76 1297.9 1450.5"/><polygon class="cls-19" points="3123.5 1256.02 3123.5 1256.15 2509.01 1610.91 2509.01 1611.04 2400.68 1673.49 2400.68 1673.43 2400.56 1673.43 2400.56 1673.56 1786.07 2028.32 1786.07 2028.44 1677.74 2090.9 1677.74 2090.84 1677.62 2090.84 1677.62 2090.96 1063.13 2445.73 1063.13 2445.85 954.76 2508.33 954.64 2508.33 954.64 2508.46 -189.75 3169.15 -189.75 3169.28 -298.11 3231.76 -298.11 3391.92 -261.15 3370.55 954.76 2668.49 954.76 2668.49 991.72 2647.12 1677.7 2251.02 1677.7 2251.08 1714.66 2229.71 2400.65 1833.61 2400.65 1833.68 2437.61 1812.3 3123.63 1416.18 3123.63 1256.02 3123.5 1256.02"/><polygon class="cls-9" points="877.11 2463.61 -375.79 3187.03 -298.18 3231.83 954.73 2508.42 877.11 2463.61"/><path class="cls-78" d="M595.85,1841.16v841.53L926.1,2492V1650.45l-60.22,34.82Zm12.82,7.41,242.76-140.29L897.06,1682l8.17-4.78,8.17-4.65v812.11L608.67,2660.57Z"/><polygon class="cls-79" points="579.5 1831.71 579.5 2673.23 595.83 2682.66 595.83 1841.14 579.5 1831.71"/><polygon class="cls-79" points="897.02 1681.98 897.02 2475.19 913.36 2484.62 913.36 1672.56 897.02 1681.98"/><polygon class="cls-80" points="909.79 1641.02 579.5 1831.71 595.83 1841.14 926.13 1650.45 909.79 1641.02"/><polygon class="cls-80" points="897.02 2475.19 608.61 2641.7 608.61 2660.55 913.36 2484.62 897.02 2475.19"/><polygon class="cls-87" points="905.21 1677.29 905.21 2480.12 608.62 2651.29 608.62 1848.53 905.21 1677.29"/><path class="cls-78" d="M-326.77,2373.75v841.66l138-79.7,784.59-453V1841.16l-16.34,9.43-867.44,500.79Zm12.82,7.42,26-15.09,854.62-493.37,8.29-4.77,4.53-2.52v-.13l3.52-1.88v-.12h.12V2675.4l-785.09,453.15-112,64.61Z"/><polygon class="cls-79" points="566.74 1872.69 566.74 2665.89 583.07 2675.32 583.07 1863.26 566.74 1872.69"/><polygon class="cls-80" points="579.5 1831.73 -343.08 2364.38 -326.74 2373.81 595.84 1841.15 579.5 1831.73"/><polygon class="cls-80" points="566.74 2665.89 -313.97 3174.37 -313.97 3193.22 583.07 2675.32 566.74 2665.89"/><polygon class="cls-88" points="574.92 1867.99 574.92 2670.82 -313.95 3183.96 -313.95 2381.19 574.92 1867.99"/><path class="cls-89" d="M2444.49,1608.85l42.5,43.07a5.35,5.35,0,0,0,6.27,1l23.39-12.17a5.35,5.35,0,0,0,1.31-8.53l-41.61-41.61a5.34,5.34,0,0,0-5.94-1.12l-24.28,10.71A5.36,5.36,0,0,0,2444.49,1608.85Z"/><path class="cls-90" d="M2521.76,1669,2501,1631.58l-17.37-17s-6.12,1.36-1,8.17a47.36,47.36,0,0,1,7.15,15L2487,1651l-23.83-23.83.42,15.28a22.28,22.28,0,0,0,7,15.57c10.56,10,29.9,28.23,30.4,28.73C2501.68,1687.41,2521.76,1669,2521.76,1669Z"/><ellipse class="cls-7" cx="2659.37" cy="2247.36" rx="286.26" ry="144.2"/><path class="cls-89" d="M2749.62,1541.24s14.13-13,19.43-11.22c40.09,13.88,63.32,128.6,53.57,164.49s-73,67.79-73,67.79-16.75-15.19-20.93-38.84,30.63-43.75,30.63-43.75h3.47l2.14-5.77,1.26-11S2733.56,1575.25,2749.62,1541.24Z"/><path class="cls-13" d="M2728,2209.12s-1.93-4.48-5.12-10.3c-6.3-11.49-17.54-28.19-28.63-25.88-16.7,3.48-19.48,21.22-17.74,32.36s11.13,20.17,14.61,28.17,20.18,36.18,34.44,31.31,17.74-18.78,11.48-36.52S2728,2209.12,2728,2209.12Z"/><path class="cls-13" d="M2730.78,2190.33s-20.18-12.52-24.35-16-19.45-6.46-23.29,4.6-5.24,22.89,2.07,33.32,18.54,35.14,22.83,38.62,13.72,11.09,24.13,6.46c9-4,6.67-7.51,7.86-17.25S2730.78,2190.33,2730.78,2190.33Z"/><path class="cls-13" d="M2736.35,1765.2s13.91,35.49,14.61,68.89-.7,157.94,0,173.25,13.22,92.54,6.26,114.81-17.1,99.5-17.1,99.5-22.81,15.3-32.08,0-4.4-66.1-10-85.59-5.57-50.79-5.57-63.31v-27.14s-18.09-67.49-24.35-129.42S2659.81,1742.94,2736.35,1765.2Z"/><path class="cls-13" d="M2670.94,2249.58s9.67,32.09,0,38.27c-25.05,16-52.72-2.43-65.94,1.05s-51.65,4.52-60-3.83-16.44-22.72-10.17-35.63c3.12-6.44,41.48,4.32,49.83.14s41.75-13.37,41.75-13.37Z"/><path class="cls-89" d="M2714.23,1798.6s10.71,56.63-15.74,75.31c-14.34,10.13-39.38,148.74-39.38,164s23,73.76,20.87,108.55-3.92,100.2-3.92,100.2-16.25,14.61-37.82,4.87-21.57-23.12-21.57-23.12,4.87-21.42,4.87-32.55-26.44-98.8-27.14-119.67-7-35.49-7-53.58-18.79-130.12-14.62-170.47,30.62-86.28,30.62-86.28l94.63,5.7Z"/><path class="cls-14" d="M2769.05,1530c18.68,19.36.64,93.73-6.32,123s-14.35,41.26-13.16,59.35,4.93,43.12,4.93,43.12,14.55,36.68-5.15,59.89c-7.24,8.54-45.66,60.27-83.95,55.17s-88.21-19.76-93.17-36.79a126,126,0,0,1-5-37c0-6.5,25.05-88.6,25.05-88.6s-19.24-89-5.57-114.11c11.25-20.63,38.65-40.87,52-48.58,3.46-2,40.77-2.88,50.09-5.68,7.23-2.17,7.68-15.87,7.68-15.87s47.7-8.22,56.39-3.2C2769.05,1530,2765.81,1526.67,2769.05,1530Z"/><path class="cls-90" d="M2694.6,1502.89l1.39,25.5s-17,14.76-34.23,17.25-29.28,3.71-29.28,3.71v-42.29Z"/><path class="cls-89" d="M2629.19,1668.49s-29,84.37-39,93.81c-27.14,25.75-84.76-49.87-89.63-58.1s-4.31-27.3,16.57-37,41.36,13.79,41.36,13.79,1.78-75.77,28.22-91.77S2642.41,1601.69,2629.19,1668.49Z"/><path class="cls-54" d="M2701.11,1523.14s-4.71-10.92-6.16-9.9-4.93,9.3-18.09,12.88-42.24,4.48-45.87,9.7-7.71,17.59-7.71,17.59,53.48-4.71,63.57-14.8A188.79,188.79,0,0,0,2701.11,1523.14Z"/><path class="cls-14" d="M2599.27,1458.92s-3,13.2,6.59,8.34,14.88-7.24,15.47-10.61,2.41-9.49,4.88-13.28,2.47-5.14,2.47-5.14S2598.22,1450.16,2599.27,1458.92Z"/><path class="cls-89" d="M2723.13,1519.2l-27.14-3.09s2.78,7.48-15.31,13.74-33.78,7.83-48.2,12.7-32.09,34.52-32.09,34.52,21.15-20.61,40.63-17.13,33.26-1.41,45.79-7.23C2716.73,1538.82,2723.13,1519.2,2723.13,1519.2Z"/><path class="cls-89" d="M2618.06,1477.84c0-1-5.7-21.14-4.52-27.14a63.4,63.4,0,0,0,.69-13.56s1-28.73,28.53-35.44c23.66-5.76,45.58-3.88,65.06,24.3,15.47,22.38,6.57,46.86,4.87,51.84-4.37,12.78-11.48,27.83-16.7,29.92s-39.31,9.39-46.27,7-15.64-7.31-17.24-9.4S2618.06,1477.84,2618.06,1477.84Z"/><path class="cls-90" d="M2614.23,1437.14s-4.17,6.61-2.78,13.56a45.39,45.39,0,0,1,1.25,11.83c.14,4.87-2.29,2.09.14,9.74s4.87,18.79,5.22,24.36,14.26,15,17.74,16.54,13.92,1.55,13.92,1.55l-13.67-7.9s3.69-1.5,1.84-8.8-3.76-12.87-7.45-13.22-3.68,4.52-3.68,4.52-9.05-19.83-10.09-24S2614.23,1437.14,2614.23,1437.14Z"/><polygon class="cls-91" points="2630.44 1484.8 2599.27 1458.92 2599.27 1466.07 2626.76 1484.8 2630.44 1484.8"/><rect class="cls-49" x="3222.28" y="87.34" width="1084.19" height="1684.66" rx="101.01"/><rect class="cls-9" x="3265.89" y="373.24" width="996.95" height="150.77" rx="49.23"/><text class="cls-92" transform="translate(3294.48 339.51)">Auto Price</text><text class="cls-92" transform="translate(3783.72 339.51)">Down Payment</text><rect class="cls-9" x="3265.89" y="677.86" width="996.95" height="150.77" rx="49.23"/><text class="cls-92" transform="translate(3294.48 644.14)">Interest Rate</text><text class="cls-92" transform="translate(3783.72 644.14)">Loan Term</text><rect class="cls-9" x="3265.89" y="982.49" width="996.95" height="150.77" rx="49.23"/><text class="cls-92" transform="translate(3294.48 948.76)">Trade-in Value</text><text class="cls-92" transform="translate(3783.72 948.76)">Sales Tax</text><rect class="cls-9" x="3265.89" y="1287.11" width="996.95" height="150.77" rx="49.23"/><text class="cls-92" transform="translate(3294.48 1253.38)">Title, Registration and Other Fees</text><text class="cls-92" transform="translate(3506.79 1591.85)">Include All Fees in Loan</text><line class="cls-93" x1="3756.22" y1="271.7" x2="3756.22" y2="1164.03"/><rect class="cls-9" x="3276.2" y="1530.19" width="203.08" height="86.16" rx="43.08"/><circle class="cls-49" cx="3320.82" cy="1574.04" r="36.15"/><text class="cls-94" transform="translate(3299.5 488.78)">$ 25000</text><text class="cls-94" transform="translate(3780.11 488.78)">$ 5000</text><text class="cls-94" transform="translate(3299.5 793.28)">5%</text><text class="cls-94" transform="translate(3780.11 793.28)">60 <tspan class="cls-95" x="141.82" y="0">Months</tspan></text><text class="cls-94" transform="translate(3299.5 1101.46)">$ 0</text><text class="cls-94" transform="translate(3780.11 1101.46)">7%</text><text class="cls-94" transform="translate(3299.5 1398.63)">$ 300</text><circle class="cls-9" cx="4087.6" cy="144.53" r="22.47"/><circle class="cls-9" cx="4150.51" cy="144.53" r="22.47"/><circle class="cls-9" cx="4213.43" cy="144.53" r="22.47"/><rect class="cls-49" x="3572.06" y="1929.72" width="1139.74" height="559.66" rx="104.17"/><text class="cls-96" transform="translate(3951.98 2120.48)">Monthly Payment :</text><text class="cls-97" transform="translate(3750.17 2358.67)">$ 377.42</text><rect class="cls-9" x="3233.53" y="1855.51" width="612.32" height="160" rx="80"/><text class="cls-98" transform="translate(3333.06 1970.01)">Calculate</text></g></g></g></svg>